<svg width="2597" height="330" viewBox="0 0 2597 330" fill="none" xmlns="http://www.w3.org/2000/svg">
<g clip-path="url(#clip0_1383_875)">
<path fill-rule="evenodd" clip-rule="evenodd" d="M767.09 43.8999H1462.74C1467.26 43.8986 1471.73 44.7878 1475.91 46.5166C1480.08 48.2454 1483.88 50.7799 1487.07 53.9755C1490.27 57.171 1492.8 60.9648 1494.53 65.1402C1496.26 69.3157 1497.15 73.7908 1497.15 78.3099V250.48C1497.15 254.999 1496.26 259.474 1494.53 263.65C1492.8 267.825 1490.27 271.619 1487.07 274.814C1483.88 278.01 1480.08 280.545 1475.91 282.273C1471.73 284.002 1467.26 284.891 1462.74 284.89H767.09C762.571 284.891 758.095 284.002 753.92 282.273C749.745 280.545 745.951 278.01 742.755 274.814C739.56 271.619 737.025 267.825 735.296 263.65C733.568 259.474 732.678 254.999 732.68 250.48V78.3099C732.673 73.7893 733.559 69.3118 735.286 65.134C737.013 60.9562 739.547 57.1603 742.744 53.9637C745.94 50.7671 749.736 48.2328 753.914 46.5058C758.092 44.7789 762.569 43.8934 767.09 43.8999Z" fill="#4385F4"/>
<path fill-rule="evenodd" clip-rule="evenodd" d="M924.579 92.1099H827.179C791.999 101 791.189 132 791.189 132V236.74H828.689V141.37C828.638 139.154 829.36 136.989 830.73 135.247C832.1 133.504 834.034 132.293 836.199 131.82H924.639V92.1099H924.579ZM850.579 147.25C850.579 147.25 843.299 146.49 843.299 153.3V183.64H891.449V192.72C891.449 192.72 891.569 197.26 887.089 197.26H843.359V236.74H895.879C895.879 236.74 927.669 231.55 927.959 197.26V147.19H850.579V147.25Z" fill="white"/>
<path fill-rule="evenodd" clip-rule="evenodd" d="M980 226.14C979.815 225.954 979.711 225.702 979.71 225.44V202.67H972.08C971.951 202.673 971.823 202.648 971.704 202.598C971.585 202.548 971.478 202.474 971.39 202.38C971.196 202.179 971.088 201.91 971.09 201.63V198.54C971.1 198.26 971.206 197.992 971.39 197.78C971.471 197.677 971.576 197.596 971.697 197.546C971.818 197.495 971.95 197.476 972.08 197.49H993.22C993.498 197.502 993.765 197.603 993.98 197.78C994.083 197.876 994.163 197.994 994.213 198.126C994.264 198.258 994.283 198.4 994.27 198.54V201.63C994.26 201.905 994.158 202.17 993.98 202.38C993.773 202.57 993.501 202.674 993.22 202.67H985.6V225.44C985.599 225.702 985.495 225.954 985.31 226.14C985.124 226.325 984.872 226.429 984.61 226.43H980.71C980.449 226.409 980.201 226.308 980 226.14ZM999.91 224.33C999.003 223.431 998.284 222.361 997.795 221.181C997.306 220.002 997.056 218.737 997.06 217.46L997 215.66L997.06 213.85C997.05 212.567 997.307 211.296 997.813 210.117C998.319 208.938 999.063 207.877 1000 207C1001.81 205.31 1004.31 204.5 1007.46 204.5C1010.17 204.338 1012.84 205.234 1014.91 207C1016.74 208.799 1017.78 211.246 1017.82 213.81C1017.82 214.16 1017.88 214.75 1017.88 215.62C1017.9 216.221 1017.88 216.822 1017.82 217.42C1017.82 219.997 1016.79 222.468 1014.97 224.29C1012.9 226.055 1010.23 226.954 1007.51 226.8C1004.76 226.967 1002.05 226.084 999.92 224.33H999.91ZM1010.8 221.33C1011.65 220.173 1012.1 218.768 1012.08 217.33C1012.08 217.04 1012.14 216.51 1012.14 215.7C1012.16 215.156 1012.14 214.611 1012.08 214.07C1012.13 212.628 1011.68 211.213 1010.8 210.07C1010.36 209.627 1009.84 209.275 1009.27 209.035C1008.69 208.795 1008.08 208.672 1007.45 208.672C1006.83 208.672 1006.22 208.795 1005.64 209.035C1005.07 209.275 1004.55 209.627 1004.11 210.07C1003.23 211.213 1002.78 212.628 1002.83 214.07L1002.77 215.7L1002.83 217.33C1002.78 218.772 1003.23 220.187 1004.11 221.33C1005.01 222.191 1006.21 222.672 1007.45 222.672C1008.7 222.672 1009.9 222.191 1010.8 221.33ZM1022.75 234C1022.57 233.814 1022.46 233.562 1022.46 233.3V205.94C1022.46 205.809 1022.48 205.68 1022.53 205.559C1022.58 205.438 1022.65 205.329 1022.75 205.24C1022.84 205.146 1022.95 205.071 1023.07 205.021C1023.19 204.971 1023.32 204.947 1023.45 204.95H1026.77C1027.05 204.955 1027.31 205.058 1027.52 205.24C1027.63 205.321 1027.71 205.429 1027.76 205.551C1027.81 205.674 1027.83 205.808 1027.81 205.94V207.57C1028.56 206.546 1029.56 205.727 1030.71 205.187C1031.86 204.648 1033.12 204.404 1034.39 204.48C1035.59 204.409 1036.78 204.607 1037.89 205.061C1039 205.514 1040 206.211 1040.8 207.1C1042.38 209.089 1043.22 211.562 1043.18 214.1C1043.18 214.45 1043.24 214.92 1043.24 215.62C1043.26 216.124 1043.24 216.629 1043.18 217.13C1043.25 219.673 1042.4 222.156 1040.8 224.13C1040 225.034 1039.01 225.745 1037.9 226.209C1036.79 226.674 1035.59 226.879 1034.39 226.81C1033.18 226.871 1031.97 226.639 1030.86 226.132C1029.76 225.626 1028.79 224.86 1028.05 223.9V233.27C1028.05 233.535 1027.94 233.79 1027.76 233.977C1027.57 234.165 1027.32 234.27 1027.05 234.27H1023.44C1023.19 234.228 1022.96 234.136 1022.75 234ZM1037.54 216.88C1037.54 216.59 1037.6 216.18 1037.6 215.66C1037.62 215.252 1037.6 214.844 1037.54 214.44C1037.36 210.83 1035.79 208.96 1032.82 208.96C1032.16 208.915 1031.5 209.029 1030.89 209.294C1030.28 209.559 1029.75 209.965 1029.33 210.48C1028.55 211.563 1028.12 212.863 1028.1 214.2C1028.1 214.55 1028.1 215.08 1028.1 215.78C1028.07 216.323 1028.07 216.867 1028.1 217.41C1028.11 218.689 1028.56 219.924 1029.39 220.9C1029.82 221.396 1030.36 221.786 1030.96 222.038C1031.57 222.289 1032.23 222.396 1032.88 222.35C1035.73 222.35 1037.3 220.55 1037.54 216.88ZM1055.35 226.14C1055.27 226.056 1055.21 225.955 1055.17 225.845C1055.13 225.735 1055.11 225.617 1055.12 225.5L1055.18 225.15L1065.08 198.48C1065.19 198.172 1065.39 197.907 1065.67 197.726C1065.94 197.546 1066.26 197.459 1066.59 197.48H1071.13C1071.46 197.468 1071.78 197.558 1072.05 197.737C1072.32 197.917 1072.53 198.176 1072.65 198.48L1082.54 225.15L1082.6 225.5C1082.59 225.743 1082.49 225.973 1082.31 226.14C1082.15 226.287 1081.95 226.37 1081.73 226.37H1078.06C1077.8 226.392 1077.54 226.33 1077.32 226.193C1077.1 226.056 1076.93 225.851 1076.84 225.61L1074.92 220.61H1062.69L1060.77 225.61C1060.68 225.851 1060.51 226.056 1060.29 226.193C1060.07 226.33 1059.81 226.392 1059.55 226.37H1055.88C1055.78 226.388 1055.67 226.376 1055.58 226.335C1055.49 226.294 1055.41 226.226 1055.35 226.14ZM1064.14 215.83H1073.46L1068.8 203.08L1064.14 215.83ZM1086.21 234C1086.03 233.814 1085.92 233.562 1085.92 233.3V205.94C1085.92 205.675 1086.03 205.42 1086.21 205.233C1086.4 205.045 1086.65 204.94 1086.92 204.94H1090.24C1090.52 204.947 1090.79 205.049 1091 205.23C1091.1 205.312 1091.18 205.42 1091.24 205.542C1091.29 205.665 1091.31 205.798 1091.29 205.93V207.56C1092.04 206.535 1093.04 205.715 1094.19 205.175C1095.34 204.635 1096.6 204.393 1097.87 204.47C1099.06 204.4 1100.26 204.599 1101.37 205.053C1102.48 205.506 1103.47 206.202 1104.27 207.09C1105.85 209.08 1106.69 211.552 1106.66 214.09C1106.66 214.44 1106.72 214.91 1106.72 215.61C1106.74 216.114 1106.72 216.619 1106.66 217.12C1106.72 219.663 1105.87 222.145 1104.27 224.12C1103.48 225.024 1102.49 225.735 1101.38 226.199C1100.27 226.664 1099.07 226.869 1097.87 226.8C1096.66 226.862 1095.44 226.63 1094.34 226.124C1093.23 225.617 1092.27 224.851 1091.52 223.89V233.26C1091.52 233.525 1091.41 233.78 1091.23 233.967C1091.04 234.155 1090.79 234.26 1090.52 234.26H1086.91C1086.66 234.221 1086.42 234.132 1086.21 234ZM1101 216.88C1101 216.59 1101.06 216.18 1101.06 215.66C1101.08 215.252 1101.06 214.844 1101 214.44C1100.83 210.83 1099.25 208.96 1096.28 208.96C1095.62 208.916 1094.96 209.031 1094.35 209.295C1093.74 209.56 1093.21 209.966 1092.79 210.48C1092.01 211.564 1091.58 212.864 1091.57 214.2C1091.57 214.55 1091.51 215.08 1091.51 215.78C1091.49 216.324 1091.51 216.869 1091.57 217.41C1091.57 218.688 1092.03 219.923 1092.85 220.9C1093.28 221.395 1093.82 221.784 1094.42 222.035C1095.03 222.287 1095.69 222.395 1096.34 222.35C1099.25 222.35 1100.83 220.55 1101 216.88ZM1111.6 234C1111.42 233.814 1111.31 233.562 1111.31 233.3V205.94C1111.31 205.675 1111.42 205.42 1111.6 205.233C1111.79 205.045 1112.04 204.94 1112.31 204.94H1115.62C1115.9 204.944 1116.17 205.046 1116.38 205.23C1116.48 205.312 1116.56 205.42 1116.62 205.542C1116.67 205.665 1116.69 205.798 1116.67 205.93V207.56C1117.42 206.536 1118.42 205.717 1119.57 205.177C1120.72 204.638 1121.98 204.394 1123.25 204.47C1124.45 204.399 1125.64 204.597 1126.75 205.051C1127.86 205.504 1128.86 206.201 1129.66 207.09C1131.24 209.079 1132.08 211.552 1132.04 214.09C1132.04 214.44 1132.1 214.91 1132.1 215.61C1132.12 216.114 1132.1 216.619 1132.04 217.12C1132.1 219.662 1131.26 222.144 1129.66 224.12C1128.86 225.024 1127.87 225.735 1126.76 226.199C1125.65 226.664 1124.45 226.869 1123.25 226.8C1122.04 226.862 1120.83 226.629 1119.72 226.122C1118.62 225.616 1117.65 224.85 1116.91 223.89V233.26C1116.91 233.525 1116.8 233.78 1116.62 233.967C1116.43 234.155 1116.18 234.26 1115.91 234.26H1112.3C1112.05 234.222 1111.81 234.134 1111.6 234ZM1126.39 216.88C1126.39 216.59 1126.39 216.18 1126.39 215.66C1126.42 215.254 1126.42 214.846 1126.39 214.44C1126.21 210.83 1124.64 208.96 1121.67 208.96C1121.01 208.915 1120.35 209.029 1119.74 209.294C1119.13 209.559 1118.6 209.965 1118.18 210.48C1117.4 211.563 1116.97 212.863 1116.95 214.2C1116.95 214.55 1116.89 215.08 1116.89 215.78C1116.87 216.324 1116.89 216.869 1116.95 217.41C1116.96 218.687 1117.41 219.921 1118.23 220.9C1118.66 221.395 1119.2 221.784 1119.81 222.036C1120.42 222.287 1121.07 222.395 1121.73 222.35C1124.58 222.35 1126.15 220.55 1126.39 216.88ZM1146.88 226.14C1146.7 225.954 1146.59 225.702 1146.59 225.44V198.54C1146.6 198.262 1146.7 197.995 1146.88 197.78C1147.07 197.595 1147.32 197.491 1147.58 197.49H1157.65C1165.8 197.49 1169.94 201.22 1170.11 208.73C1170.17 210.3 1170.17 211.41 1170.17 211.93C1170.17 212.45 1170.17 213.5 1170.11 215.13C1169.99 218.98 1168.95 221.83 1166.97 223.69C1164.99 225.55 1161.97 226.43 1157.83 226.43H1147.52C1147.28 226.414 1147.05 226.311 1146.88 226.14ZM1157.65 221.6C1159.92 221.6 1161.65 221.07 1162.6 220.08C1163.55 219.09 1164.17 217.35 1164.23 215.02C1164.29 213.39 1164.29 212.34 1164.29 211.93C1164.29 211.52 1164.29 210.48 1164.23 208.85C1164.31 207.031 1163.71 205.247 1162.54 203.85C1161.54 202.8 1159.75 202.28 1157.48 202.28H1152.41V221.6H1157.65ZM1177.1 224.16C1175.29 222.41 1174.36 219.91 1174.25 216.65L1174.19 215.6C1174.19 212.17 1175.06 209.43 1176.87 207.45C1177.83 206.435 1179 205.642 1180.29 205.124C1181.59 204.605 1182.99 204.376 1184.38 204.45C1187.64 204.45 1190.2 205.45 1191.94 207.45C1193.79 209.661 1194.75 212.487 1194.62 215.37V216.24C1194.62 216.502 1194.51 216.754 1194.33 216.94C1194.13 217.128 1193.86 217.231 1193.58 217.23H1179.83V217.58C1179.84 218.965 1180.29 220.311 1181.12 221.42C1181.5 221.916 1182 222.314 1182.56 222.578C1183.13 222.843 1183.75 222.967 1184.38 222.94C1185.13 222.953 1185.87 222.785 1186.54 222.451C1187.2 222.117 1187.78 221.626 1188.22 221.02C1188.4 220.806 1188.59 220.609 1188.8 220.43C1188.92 220.32 1189.15 220.32 1189.5 220.32H1193.11C1193.23 220.312 1193.34 220.329 1193.45 220.368C1193.56 220.408 1193.66 220.47 1193.75 220.55C1193.84 220.618 1193.91 220.705 1193.96 220.806C1194.01 220.907 1194.04 221.018 1194.04 221.13C1193.92 222.014 1193.52 222.834 1192.88 223.46C1191.93 224.471 1190.78 225.266 1189.5 225.79C1187.9 226.473 1186.17 226.814 1184.43 226.79C1183.09 226.874 1181.75 226.684 1180.49 226.232C1179.23 225.78 1178.08 225.075 1177.1 224.16ZM1188.92 213.74V213.68C1188.99 212.275 1188.55 210.891 1187.69 209.78C1187.27 209.32 1186.76 208.952 1186.19 208.7C1185.62 208.448 1185 208.318 1184.37 208.318C1183.75 208.318 1183.13 208.448 1182.56 208.7C1181.99 208.952 1181.48 209.32 1181.06 209.78C1180.2 210.891 1179.76 212.275 1179.83 213.68V213.74H1188.92ZM1205.69 226.14C1205.44 225.949 1205.25 225.683 1205.16 225.38L1197.42 206.23C1197.42 206.17 1197.36 205.99 1197.36 205.88C1197.37 205.637 1197.47 205.407 1197.65 205.24C1197.8 205.076 1198.01 204.973 1198.23 204.95H1201.67C1201.91 204.931 1202.15 204.994 1202.35 205.131C1202.55 205.267 1202.7 205.468 1202.77 205.7L1208.25 220.14L1213.72 205.7C1213.79 205.501 1213.91 205.323 1214.07 205.18C1214.16 205.094 1214.27 205.03 1214.4 204.99C1214.52 204.95 1214.64 204.937 1214.77 204.95H1218.2C1218.32 204.952 1218.44 204.979 1218.55 205.029C1218.66 205.079 1218.76 205.151 1218.84 205.24C1218.92 205.324 1218.99 205.424 1219.03 205.535C1219.07 205.645 1219.09 205.763 1219.08 205.88C1219.08 206.05 1219.08 206.17 1219.02 206.23L1211.27 225.38C1211.16 225.693 1210.96 225.964 1210.69 226.153C1210.42 226.342 1210.09 226.439 1209.76 226.43H1206.62C1206.28 226.451 1205.95 226.347 1205.69 226.14ZM1224.69 224.14C1222.89 222.39 1221.96 219.89 1221.84 216.63L1221.78 215.58C1221.78 212.15 1222.66 209.41 1224.46 207.43C1225.42 206.417 1226.59 205.624 1227.89 205.106C1229.18 204.588 1230.58 204.358 1231.97 204.43C1235.23 204.43 1237.79 205.43 1239.54 207.43C1241.42 209.627 1242.38 212.464 1242.22 215.35V216.22C1242.22 216.482 1242.11 216.734 1241.93 216.92C1241.72 217.106 1241.45 217.209 1241.17 217.21H1227.43V217.56C1227.44 218.943 1227.89 220.288 1228.71 221.4C1229.09 221.896 1229.59 222.293 1230.15 222.557C1230.72 222.822 1231.34 222.946 1231.97 222.92C1232.72 222.933 1233.46 222.765 1234.13 222.431C1234.8 222.097 1235.38 221.606 1235.82 221C1236 220.786 1236.19 220.589 1236.4 220.41C1236.51 220.3 1236.75 220.3 1237.1 220.3H1240.71C1240.83 220.293 1240.94 220.31 1241.05 220.349C1241.16 220.389 1241.26 220.45 1241.35 220.53C1241.44 220.598 1241.51 220.685 1241.56 220.786C1241.61 220.887 1241.64 220.998 1241.64 221.11C1241.52 221.996 1241.11 222.816 1240.47 223.44C1239.53 224.451 1238.38 225.245 1237.1 225.77C1235.5 226.452 1233.77 226.793 1232.03 226.77C1230.7 226.853 1229.36 226.664 1228.11 226.215C1226.85 225.767 1225.7 225.068 1224.72 224.16L1224.69 224.14ZM1236.57 213.72V213.66C1236.64 212.257 1236.21 210.874 1235.35 209.76C1234.93 209.299 1234.42 208.931 1233.84 208.68C1233.27 208.428 1232.65 208.298 1232.03 208.298C1231.41 208.298 1230.79 208.428 1230.22 208.68C1229.64 208.931 1229.13 209.299 1228.71 209.76C1227.85 210.874 1227.42 212.257 1227.49 213.66V213.72H1236.57ZM1246.94 226.12C1246.75 225.935 1246.64 225.684 1246.64 225.42V198.08C1246.64 197.949 1246.66 197.819 1246.71 197.698C1246.77 197.577 1246.84 197.469 1246.94 197.38C1247.03 197.286 1247.14 197.212 1247.25 197.162C1247.37 197.112 1247.5 197.087 1247.63 197.09H1251.13C1251.4 197.09 1251.65 197.195 1251.84 197.383C1252.02 197.57 1252.13 197.825 1252.13 198.09V225.45C1252.13 225.715 1252.02 225.97 1251.84 226.157C1251.65 226.345 1251.4 226.45 1251.13 226.45H1247.63C1247.39 226.411 1247.17 226.303 1247 226.14L1246.94 226.12ZM1259.63 224.31C1258.72 223.414 1258 222.344 1257.51 221.164C1257.02 219.984 1256.77 218.718 1256.78 217.44L1256.72 215.64L1256.78 213.83C1256.77 212.555 1257.02 211.292 1257.52 210.12C1258.02 208.947 1258.76 207.892 1259.69 207.02C1261.49 205.33 1263.99 204.52 1267.14 204.52C1270.29 204.52 1272.79 205.33 1274.59 207.02C1275.5 207.908 1276.22 208.967 1276.72 210.135C1277.22 211.304 1277.49 212.559 1277.5 213.83C1277.5 214.18 1277.56 214.77 1277.56 215.64C1277.58 216.241 1277.56 216.842 1277.5 217.44C1277.5 218.717 1277.25 219.982 1276.76 221.161C1276.28 222.341 1275.56 223.411 1274.65 224.31C1272.58 226.073 1269.91 226.972 1267.2 226.82C1264.46 226.97 1261.77 226.08 1259.66 224.33L1259.63 224.31ZM1270.52 221.31C1271.37 220.149 1271.81 218.746 1271.8 217.31C1271.8 217.02 1271.86 216.49 1271.86 215.68C1271.88 215.136 1271.86 214.591 1271.8 214.05C1271.84 212.609 1271.39 211.197 1270.52 210.05C1270.08 209.607 1269.56 209.255 1268.99 209.015C1268.41 208.775 1267.79 208.651 1267.17 208.651C1266.55 208.651 1265.93 208.775 1265.35 209.015C1264.78 209.255 1264.26 209.607 1263.82 210.05C1262.95 211.197 1262.49 212.609 1262.54 214.05L1262.48 215.68L1262.54 217.31C1262.5 218.751 1262.95 220.162 1263.82 221.31C1264.72 222.17 1265.92 222.649 1267.17 222.649C1268.42 222.649 1269.62 222.17 1270.52 221.31ZM1282.48 234C1282.3 233.814 1282.19 233.562 1282.19 233.3V205.94C1282.19 205.675 1282.3 205.42 1282.48 205.233C1282.67 205.045 1282.92 204.94 1283.19 204.94H1286.51C1286.79 204.947 1287.06 205.049 1287.27 205.23C1287.37 205.312 1287.45 205.42 1287.51 205.542C1287.56 205.665 1287.58 205.798 1287.56 205.93V207.56C1288.31 206.536 1289.31 205.716 1290.46 205.176C1291.61 204.636 1292.87 204.393 1294.14 204.47C1295.33 204.4 1296.53 204.599 1297.64 205.053C1298.75 205.506 1299.74 206.202 1300.54 207.09C1302.12 209.08 1302.96 211.552 1302.93 214.09C1302.93 214.44 1302.99 214.91 1302.99 215.61C1303.01 216.114 1302.99 216.619 1302.93 217.12C1302.99 219.663 1302.14 222.145 1300.54 224.12C1299.75 225.024 1298.76 225.735 1297.65 226.199C1296.54 226.664 1295.34 226.869 1294.14 226.8C1292.93 226.862 1291.71 226.63 1290.61 226.124C1289.5 225.617 1288.54 224.851 1287.79 223.89V233.26C1287.79 233.525 1287.68 233.78 1287.5 233.967C1287.31 234.155 1287.06 234.26 1286.79 234.26H1283.18C1282.93 234.229 1282.69 234.14 1282.48 234ZM1297.27 216.88C1297.27 216.59 1297.33 216.18 1297.33 215.66C1297.35 215.252 1297.33 214.844 1297.27 214.44C1297.1 210.83 1295.52 208.96 1292.55 208.96C1291.89 208.916 1291.23 209.031 1290.62 209.295C1290.01 209.56 1289.48 209.966 1289.06 210.48C1288.28 211.564 1287.85 212.864 1287.84 214.2C1287.84 214.55 1287.78 215.08 1287.78 215.78C1287.76 216.324 1287.78 216.869 1287.84 217.41C1287.84 218.688 1288.3 219.923 1289.12 220.9C1289.55 221.395 1290.09 221.784 1290.69 222.035C1291.3 222.287 1291.96 222.395 1292.61 222.35C1295.47 222.35 1297 220.55 1297.27 216.88ZM1309.5 224.16C1307.69 222.41 1306.76 219.91 1306.64 216.65L1306.59 215.6C1306.59 212.17 1307.46 209.43 1309.26 207.45C1310.22 206.436 1311.39 205.643 1312.69 205.125C1313.99 204.607 1315.38 204.377 1316.78 204.45C1320.04 204.45 1322.6 205.45 1324.34 207.45C1326.22 209.647 1327.18 212.484 1327.02 215.37V216.24C1327.02 216.502 1326.91 216.754 1326.73 216.94C1326.52 217.129 1326.25 217.233 1325.97 217.23H1312.23V217.58C1312.24 218.963 1312.69 220.308 1313.51 221.42C1313.89 221.916 1314.39 222.313 1314.96 222.577C1315.53 222.842 1316.15 222.966 1316.78 222.94C1317.53 222.953 1318.27 222.785 1318.94 222.451C1319.6 222.117 1320.18 221.626 1320.62 221.02C1320.8 220.806 1320.99 220.609 1321.2 220.43C1321.32 220.32 1321.55 220.32 1321.9 220.32H1325.51C1325.63 220.313 1325.74 220.33 1325.85 220.369C1325.96 220.409 1326.06 220.47 1326.15 220.55C1326.24 220.618 1326.31 220.705 1326.36 220.806C1326.41 220.907 1326.44 221.018 1326.44 221.13C1326.32 222.014 1325.92 222.834 1325.28 223.46C1324.33 224.469 1323.18 225.263 1321.9 225.79C1320.3 226.472 1318.57 226.813 1316.83 226.79C1315.49 226.874 1314.15 226.684 1312.89 226.232C1311.63 225.78 1310.48 225.075 1309.5 224.16ZM1321.32 213.74V213.68C1321.39 212.275 1320.95 210.891 1320.09 209.78C1319.67 209.32 1319.16 208.952 1318.59 208.7C1318.02 208.448 1317.4 208.318 1316.77 208.318C1316.15 208.318 1315.53 208.448 1314.96 208.7C1314.39 208.952 1313.88 209.32 1313.46 209.78C1312.6 210.891 1312.16 212.275 1312.23 213.68V213.74H1321.32ZM1331.74 226.14C1331.56 225.954 1331.45 225.702 1331.45 225.44V206C1331.45 205.724 1331.56 205.458 1331.74 205.25C1331.83 205.156 1331.94 205.081 1332.06 205.031C1332.18 204.981 1332.31 204.957 1332.44 204.96H1335.81C1336.09 204.964 1336.36 205.066 1336.57 205.25C1336.76 205.452 1336.87 205.722 1336.86 206V207.69C1337.56 206.793 1338.46 206.077 1339.5 205.602C1340.53 205.127 1341.66 204.907 1342.8 204.96H1344.55C1344.82 204.96 1345.07 205.065 1345.26 205.253C1345.44 205.44 1345.55 205.695 1345.55 205.96V208.96C1345.55 209.222 1345.44 209.474 1345.26 209.66C1345.07 209.845 1344.82 209.949 1344.56 209.95H1341.3C1340.74 209.917 1340.17 209.999 1339.64 210.19C1339.11 210.381 1338.62 210.677 1338.21 211.06C1337.82 211.47 1337.53 211.955 1337.34 212.485C1337.15 213.015 1337.07 213.579 1337.11 214.14V225.44C1337.11 225.705 1337 225.96 1336.82 226.147C1336.63 226.335 1336.38 226.44 1336.11 226.44H1332.44C1332.18 226.436 1331.92 226.328 1331.74 226.14Z" fill="white"/>
<path d="M1025.93 155C1024.41 156 1023.31 156.86 1022.49 157.39C1019.95 159.09 1017.28 160.569 1014.49 161.81C1011.45 163.262 1008.14 164.075 1004.77 164.2C994.87 164.2 986.66 161 980.02 154.48C973.38 147.96 970.12 139.8 970.12 129.91C969.951 120.83 973.109 112.002 979 105.09C985 98.0903 992.22 94.6104 1000.72 94.6104C1004.57 94.6562 1008.38 95.3318 1012.01 96.6104C1016.74 98.1261 1021.04 100.765 1024.53 104.3L1018.83 111.05C1016.25 108.472 1013.06 106.573 1009.57 105.52C1006.61 104.625 1003.52 104.193 1000.43 104.24C994.43 104.24 989.43 106.8 985.43 111.92C981.388 117.189 979.27 123.682 979.43 130.32C979.43 137.43 981.7 143.19 986.3 147.85C988.582 150.161 991.318 151.976 994.334 153.18C997.351 154.385 1000.58 154.953 1003.83 154.85C1007.07 154.754 1010.22 153.745 1012.91 151.94C1015.47 149.85 1016.81 148.86 1016.91 148.8V134.15H997.63L1000.37 125.01H1025.81V155.01L1025.93 155Z" fill="white"/>
<path d="M1083.86 137.06C1083.96 143.881 1081.42 150.477 1076.76 155.46C1074.57 157.943 1071.87 159.925 1068.84 161.271C1065.82 162.617 1062.54 163.295 1059.23 163.26C1052.83 163.26 1047.18 160.697 1042.29 155.57C1039.93 153.124 1038.07 150.234 1036.83 147.067C1035.59 143.901 1035 140.52 1035.07 137.12C1034.95 130.267 1037.4 123.617 1041.94 118.48C1043.98 115.989 1046.56 113.989 1049.48 112.628C1052.41 111.268 1055.6 110.581 1058.82 110.62C1066.15 110.62 1072.15 113.144 1076.82 118.19C1081.47 123.14 1083.86 129.49 1083.86 137.06ZM1074.86 137.23C1074.97 132.739 1073.34 128.379 1070.31 125.06C1068.92 123.45 1067.2 122.166 1065.26 121.302C1063.31 120.437 1061.2 120.013 1059.08 120.06C1057.02 120.061 1054.98 120.528 1053.13 121.425C1051.27 122.322 1049.64 123.626 1048.36 125.24C1045.47 128.495 1043.89 132.708 1043.94 137.06C1043.85 141.447 1045.45 145.7 1048.42 148.93C1049.8 150.524 1051.51 151.798 1053.43 152.661C1055.35 153.525 1057.43 153.958 1059.54 153.93C1061.58 153.936 1063.6 153.496 1065.45 152.641C1067.3 151.786 1068.94 150.536 1070.26 148.98C1073.26 145.81 1074.9 141.594 1074.84 137.23H1074.86Z" fill="white"/>
<path d="M1141 137.06C1141.1 143.883 1138.55 150.48 1133.89 155.46C1131.7 157.944 1129.01 159.927 1125.98 161.273C1122.96 162.62 1119.68 163.297 1116.37 163.26C1109.96 163.26 1104.32 160.697 1099.43 155.57C1097.07 153.126 1095.21 150.236 1093.97 147.069C1092.73 143.902 1092.13 140.52 1092.21 137.12C1092.09 130.267 1094.54 123.617 1099.08 118.48C1101.12 115.988 1103.7 113.988 1106.62 112.627C1109.55 111.267 1112.74 110.581 1115.96 110.62C1123.29 110.62 1129.29 113.144 1133.96 118.19C1138.59 123.14 1141 129.49 1141 137.06ZM1132 137.23C1132.11 132.74 1130.48 128.38 1127.46 125.06C1126.07 123.45 1124.34 122.166 1122.4 121.302C1120.46 120.437 1118.35 120.013 1116.22 120.06C1114.16 120.062 1112.13 120.528 1110.27 121.425C1108.42 122.322 1106.79 123.626 1105.51 125.24C1102.62 128.495 1101.04 132.708 1101.09 137.06C1101 141.447 1102.6 145.7 1105.57 148.93C1106.94 150.533 1108.65 151.812 1110.57 152.677C1112.49 153.541 1114.58 153.969 1116.69 153.93C1118.73 153.934 1120.74 153.494 1122.59 152.639C1124.44 151.784 1126.08 150.535 1127.4 148.98C1130.41 145.815 1132.06 141.598 1132 137.23Z" fill="white"/>
<path d="M1193.79 161.86L1185.52 163.2V154.7C1184.94 155.4 1184.35 156.15 1183.77 156.85C1182.22 158.387 1180.46 159.685 1178.53 160.7C1175.73 162.08 1172.65 162.795 1169.53 162.79C1166.4 162.82 1163.31 162.156 1160.47 160.847C1157.64 159.538 1155.13 157.616 1153.12 155.22C1148.68 150.25 1146.29 143.783 1146.42 137.12C1146.27 130.303 1148.63 123.668 1153.06 118.48C1157.48 113.3 1162.84 110.74 1169.24 110.74C1172.55 110.666 1175.83 111.322 1178.85 112.66C1180.72 113.561 1182.4 114.806 1183.8 116.33C1184.27 116.97 1184.73 117.67 1185.2 118.33V96.0002L1193.99 94.6602L1193.79 161.86ZM1186 137.7C1186.13 133.009 1184.42 128.452 1181.23 125.01C1178.03 121.51 1174.42 119.77 1170.23 119.77C1168.12 119.697 1166.03 120.104 1164.1 120.96C1162.17 121.816 1160.47 123.098 1159.11 124.71C1156.44 127.954 1155.03 132.043 1155.11 136.24C1155.11 141.31 1156.51 145.56 1159.25 148.82C1160.49 150.409 1162.08 151.688 1163.9 152.555C1165.72 153.423 1167.71 153.856 1169.73 153.82C1173.92 153.818 1177.93 152.165 1180.91 149.22C1182.54 147.784 1183.84 146.009 1184.72 144.02C1185.6 142.031 1186.04 139.875 1186 137.7Z" fill="white"/>
<path d="M1240.25 105.27H1215.62V123.08H1234.72V132.28H1215.62V161.74L1206.01 163.26V96.0103H1238.33L1240.25 105.27Z" fill="white"/>
<path d="M1260 100L1254.11 108L1248.47 100L1254.47 92.1401L1260 100ZM1258.19 161.83L1249.4 163.11V113.36L1258.19 111.9V161.83Z" fill="white"/>
<path d="M1298 111.44L1293.86 121.63C1292.47 121.438 1291.05 121.476 1289.67 121.74C1288.72 121.967 1287.8 122.303 1286.93 122.74C1285.07 123.62 1283.5 125.48 1282.16 128.28C1280.64 131.478 1279.86 134.979 1279.89 138.52V161.75L1271.1 163.27V113.37L1279.25 111.8V122.16C1280.25 120.36 1281.4 118.61 1282.45 116.75C1283.83 114.997 1285.63 113.621 1287.69 112.75C1289.58 112.162 1291.53 111.826 1293.51 111.75C1296.14 111.44 1297.71 111.26 1298 111.44Z" fill="white"/>
<path d="M1363.45 161.86L1354.66 163.2V129C1354.66 125.86 1354.02 123.59 1352.66 122.13C1351.9 121.376 1350.98 120.794 1349.98 120.423C1348.97 120.052 1347.9 119.901 1346.83 119.98C1345.4 119.936 1343.98 120.294 1342.75 121.013C1341.51 121.733 1340.5 122.785 1339.83 124.05C1338.79 125.837 1338.23 127.863 1338.2 129.93V161.72L1329.41 163.47V129.26C1329.41 126.26 1328.77 123.96 1327.49 122.39C1326.86 121.615 1326.06 120.996 1325.15 120.581C1324.24 120.166 1323.25 119.968 1322.25 120H1321.37C1319.97 119.93 1318.58 120.287 1317.38 121.025C1316.19 121.762 1315.25 122.845 1314.68 124.13C1313.54 126.637 1313 129.377 1313.1 132.13V161.76L1303.96 163.51V113.36L1312.17 111.85V118.19C1312.93 116.913 1313.83 115.723 1314.85 114.64C1315.91 113.527 1317.18 112.643 1318.59 112.043C1320 111.442 1321.53 111.138 1323.06 111.15C1326.55 111.15 1329.12 111.73 1330.86 112.95C1332.38 113.95 1333.86 115.95 1335.29 118.83C1338.29 113.77 1342.57 111.15 1348.21 111.15C1353.57 111.15 1357.59 112.95 1360.21 116.56C1362.36 119.56 1363.41 124.02 1363.41 129.84V161.84L1363.45 161.86Z" fill="white"/>
<path d="M1403.62 146.72C1403.7 148.816 1403.33 150.905 1402.55 152.852C1401.77 154.798 1400.58 156.559 1399.08 158.02C1397.58 159.5 1395.8 160.657 1393.83 161.417C1391.87 162.178 1389.77 162.526 1387.67 162.44C1384.37 162.478 1381.12 161.591 1378.29 159.88C1375.75 158.429 1373.6 156.393 1372.01 153.94L1378.18 148.06C1378.64 148.76 1379.05 149.34 1379.4 149.81C1380.42 151.001 1381.69 151.955 1383.12 152.607C1384.55 153.26 1386.1 153.595 1387.67 153.59C1388.62 153.643 1389.58 153.506 1390.48 153.186C1391.38 152.867 1392.2 152.372 1392.91 151.73C1393.59 151.059 1394.11 150.247 1394.44 149.353C1394.77 148.458 1394.91 147.501 1394.83 146.55C1394.83 144.04 1393.32 142.3 1390.29 141.37C1384.29 139.44 1381.09 138.37 1380.62 138.16C1378.28 137.001 1376.23 135.33 1374.62 133.27C1373.1 130.772 1372.36 127.872 1372.52 124.95C1372.47 122.949 1372.85 120.96 1373.62 119.113C1374.39 117.266 1375.54 115.602 1377 114.23C1378.4 112.855 1380.05 111.77 1381.87 111.041C1383.69 110.311 1385.64 109.951 1387.6 109.98C1390.62 109.938 1393.6 110.704 1396.22 112.2C1398.49 113.34 1400.43 115.041 1401.86 117.14L1396.62 123.26C1395.84 122.425 1394.98 121.665 1394.06 120.99C1392.37 119.57 1390.26 118.732 1388.06 118.6C1386.45 118.517 1384.85 118.967 1383.52 119.88C1382.82 120.44 1382.26 121.161 1381.89 121.983C1381.53 122.805 1381.36 123.703 1381.42 124.6C1381.34 125.447 1381.49 126.299 1381.84 127.074C1382.19 127.848 1382.73 128.519 1383.42 129.02C1384.58 129.84 1387.09 130.65 1391.05 131.58C1394.56 132.33 1397.75 134.142 1400.19 136.77C1402.57 139.521 1403.8 143.086 1403.62 146.72Z" fill="white"/>
<path d="M2167.47 202.21V242.79H2154.61V142.59H2188.78C2192.86 142.509 2196.91 143.232 2200.71 144.72C2204.51 146.208 2207.97 148.43 2210.91 151.26C2213.83 153.965 2216.16 157.244 2217.75 160.891C2219.35 164.538 2220.17 168.475 2220.17 172.455C2220.17 176.435 2219.35 180.372 2217.75 184.02C2216.16 187.667 2213.83 190.946 2210.91 193.65C2204.91 199.36 2197.58 202.21 2188.78 202.21H2167.47ZM2167.47 154.93V189.93H2189C2191.37 189.994 2193.72 189.567 2195.92 188.675C2198.11 187.784 2200.1 186.447 2201.75 184.75C2203.42 183.159 2204.75 181.242 2205.65 179.118C2206.56 176.994 2207.01 174.708 2207 172.4C2206.89 167.71 2204.94 163.252 2201.57 159.985C2198.21 156.718 2193.69 154.903 2189 154.93H2167.47Z" fill="white"/>
<path d="M2254.58 172C2264.12 172 2271.63 174.543 2277.11 179.63C2282.64 184.69 2285.38 191.63 2285.38 200.53V242.8H2273V233.3H2272.42C2267.12 241.16 2260.02 245.06 2251.17 245.06C2243.6 245.06 2237.31 242.85 2232.17 238.37C2229.73 236.306 2227.78 233.725 2226.46 230.814C2225.14 227.903 2224.48 224.736 2224.54 221.54C2224.54 214.44 2227.21 208.793 2232.54 204.6C2237.87 200.407 2245.03 198.31 2254.02 198.31C2261.65 198.31 2268.02 199.71 2272.94 202.5V199.59C2272.96 197.414 2272.5 195.26 2271.58 193.286C2270.66 191.312 2269.32 189.567 2267.64 188.18C2264.24 185.082 2259.78 183.395 2255.18 183.46C2248.02 183.46 2242.32 186.46 2238.13 192.54L2226.77 185.38C2233.06 176.46 2242.33 172 2254.58 172ZM2237.92 221.84C2237.9 223.476 2238.28 225.092 2239.02 226.551C2239.76 228.01 2240.84 229.269 2242.17 230.22C2245.02 232.455 2248.55 233.647 2252.17 233.6C2257.61 233.601 2262.82 231.443 2266.67 227.6C2268.67 225.829 2270.27 223.651 2271.36 221.213C2272.46 218.775 2273.02 216.132 2273.01 213.46C2269.01 210.31 2263.41 208.68 2256.19 208.68C2251.53 208.516 2246.94 209.843 2243.09 212.47C2239.67 215 2237.92 218.1 2237.92 221.83V221.84Z" fill="white"/>
<path d="M2299.93 174.2H2312.28V185.38H2312.86C2316.7 176.587 2324.58 172.2 2336.5 172.22L2339.17 172.52V186L2333.41 185.42C2327.94 185.239 2322.63 187.227 2318.62 190.95C2316.71 192.746 2315.2 194.927 2314.2 197.35C2313.2 199.772 2312.72 202.38 2312.8 205V242.79H2299.93V174.2ZM2380.28 244C2375.14 244.163 2370.14 242.299 2366.36 238.81C2362.7 235.38 2360.77 230.55 2360.72 224.37V186H2348.66V174.2H2360.72V153.2H2373.58V174.2H2390.41V186H2373.58V220.18C2373.58 224.78 2374.46 227.87 2376.26 229.5C2377.87 231.063 2380.02 231.938 2382.26 231.94C2383.27 231.943 2384.28 231.826 2385.26 231.59C2386.2 231.38 2387.12 231.068 2387.99 230.66L2392.07 242.13C2388.28 243.423 2384.29 244.055 2380.28 244Z" fill="white"/>
<path d="M2403.39 174.2H2415.74V183.69H2416.32C2418.49 180.119 2421.6 177.219 2425.32 175.31C2429.2 173.126 2433.57 171.963 2438.02 171.93C2446.4 171.93 2452.86 174.32 2457.41 179.15C2461.96 183.98 2464.22 190.8 2464.22 199.65V242.79H2451.35V200.52C2451.06 189.34 2445.41 183.69 2434.41 183.69C2431.93 183.668 2429.48 184.219 2427.25 185.3C2425.01 186.38 2423.06 187.961 2421.54 189.92C2418.08 194.109 2416.24 199.4 2416.36 204.83V242.83H2403.49V174.2H2403.39Z" fill="white"/>
<path d="M2510.06 245.06C2499.99 245.06 2491.66 241.63 2485.14 234.7C2478.62 227.77 2475.36 219.09 2475.36 208.5C2475.36 197.91 2478.5 189.34 2484.85 182.41C2491.2 175.48 2499.29 172 2509.19 172C2519.37 172 2527.47 175.32 2533.46 181.9C2539.45 188.48 2542.46 197.68 2542.46 209.56L2542.34 210.95H2488.43C2488.6 217.65 2490.87 223.06 2495.12 227.2C2497.15 229.196 2499.55 230.77 2502.19 231.829C2504.82 232.888 2507.65 233.412 2510.49 233.37C2518.7 233.37 2525.17 229.23 2529.82 221.03L2541.3 226.61C2538.37 232.232 2533.93 236.929 2528.49 240.18C2522.92 243.488 2516.54 245.178 2510.06 245.06ZM2489.45 200.29H2528.81C2528.67 198.031 2528.09 195.822 2527.09 193.792C2526.09 191.762 2524.69 189.953 2522.98 188.47C2519.49 185.32 2514.78 183.75 2508.89 183.75C2504.31 183.668 2499.86 185.265 2496.38 188.24C2492.8 191.377 2490.36 195.616 2489.45 200.29Z" fill="white"/>
<path d="M2567.18 242.85H2554.31V174.2H2566.65V185.38H2567.23C2568.52 181.71 2571.23 178.63 2575.23 176.07C2578.78 173.664 2582.94 172.327 2587.23 172.22C2590.48 172.14 2593.7 172.715 2596.72 173.91L2592.82 186.37C2590.38 185.591 2587.81 185.252 2585.25 185.37C2582.84 185.384 2580.46 185.916 2578.27 186.93C2576.08 187.945 2574.13 189.418 2572.56 191.25C2569.03 194.95 2567.09 199.88 2567.15 204.99L2567.18 242.85Z" fill="white"/>
<path d="M2183.78 83.9999V92.7299H2204.68C2203.98 98.2599 2201.68 102.57 2197.81 105.6C2193.31 108.904 2187.78 110.491 2182.22 110.075C2176.66 109.659 2171.42 107.266 2167.47 103.33C2165.31 101.175 2163.6 98.6027 2162.46 95.7699C2161.33 92.9372 2160.77 89.9026 2160.84 86.8499C2160.77 83.7971 2161.32 80.7622 2162.46 77.9292C2163.6 75.0963 2165.31 72.5245 2167.47 70.3699C2169.56 68.1619 2172.1 66.4157 2174.91 65.243C2177.71 64.0703 2180.74 63.4971 2183.78 63.5599C2189.65 63.5044 2195.31 65.7392 2199.56 69.7899L2205.73 63.6199C2202.84 60.7707 2199.41 58.5221 2195.64 57.0032C2191.87 55.4844 2187.84 54.7254 2183.78 54.7699C2178.07 54.7679 2172.47 56.2719 2167.53 59.1299C2162.57 61.9156 2158.45 65.9801 2155.6 70.8999C2152.76 75.6912 2151.27 81.1611 2151.29 86.7299C2151.29 92.3691 2152.79 97.9066 2155.65 102.77C2158.5 107.632 2162.6 111.644 2167.53 114.39C2172.47 117.251 2178.07 118.758 2183.78 118.76C2192.39 118.76 2199.56 116.08 2205.26 110.66C2210.96 105.24 2213.7 98.1999 2213.7 89.3499C2213.71 87.5164 2213.56 85.6855 2213.24 83.8799H2183.78V83.9999Z" fill="#487CBE"/>
<path d="M2237.52 77.6701C2234.8 77.6187 2232.09 78.1163 2229.56 79.1331C2227.04 80.1499 2224.74 81.6651 2222.81 83.5885C2220.88 85.5118 2219.36 87.8038 2218.34 90.3279C2217.31 92.852 2216.81 95.5565 2216.85 98.2801C2216.85 103.762 2219.03 109.02 2222.9 112.896C2226.78 116.772 2232.04 118.95 2237.52 118.95C2243 118.95 2248.26 116.772 2252.14 112.896C2256.01 109.02 2258.19 103.762 2258.19 98.2801C2258.27 95.5516 2257.78 92.8369 2256.74 90.3105C2255.71 87.784 2254.16 85.5017 2252.19 83.6101C2250.28 81.6707 2247.99 80.143 2245.47 79.1214C2242.95 78.0998 2240.24 77.6059 2237.52 77.6701ZM2245.73 107.19C2244.7 108.346 2243.44 109.267 2242.02 109.889C2240.6 110.512 2239.07 110.823 2237.52 110.8C2235.96 110.824 2234.42 110.515 2232.99 109.892C2231.57 109.269 2230.29 108.348 2229.25 107.19C2227.01 104.773 2225.8 101.577 2225.87 98.2801C2225.8 96.6428 2226.06 95.0076 2226.64 93.4752C2227.22 91.9428 2228.11 90.5457 2229.25 89.3701C2230.31 88.232 2231.58 87.3241 2233.01 86.7032C2234.43 86.0823 2235.96 85.7619 2237.52 85.7619C2239.07 85.7619 2240.6 86.0823 2242.02 86.7032C2243.45 87.3241 2244.73 88.232 2245.78 89.3701C2246.91 90.5535 2247.79 91.9518 2248.37 93.4823C2248.95 95.0128 2249.22 96.6443 2249.16 98.2801C2249.22 101.584 2247.99 104.782 2245.73 107.19Z" fill="#EE372C"/>
<path d="M2361.88 57.0601H2352.8V117.67H2361.88V57.0601Z" fill="#00AB4E"/>
<path d="M2282.64 77.6698C2279.92 77.6225 2277.22 78.1231 2274.69 79.1417C2272.17 80.1604 2269.88 81.6762 2267.95 83.5991C2266.02 85.5221 2264.51 87.8127 2263.48 90.3348C2262.46 92.8568 2261.96 95.5588 2262 98.2798C2262 103.762 2264.18 109.019 2268.05 112.896C2271.93 116.772 2277.19 118.95 2282.67 118.95C2288.15 118.95 2293.41 116.772 2297.29 112.896C2301.16 109.019 2303.34 103.762 2303.34 98.2798C2303.42 95.5514 2302.92 92.8367 2301.89 90.3102C2300.86 87.7838 2299.31 85.5014 2297.34 83.6098C2295.43 81.6667 2293.13 80.1369 2290.61 79.1152C2288.08 78.0934 2285.37 77.6015 2282.64 77.6698ZM2290.85 107.19C2289.82 108.347 2288.56 109.268 2287.14 109.891C2285.72 110.514 2284.19 110.824 2282.64 110.8C2281.08 110.824 2279.54 110.514 2278.11 109.892C2276.69 109.269 2275.41 108.348 2274.37 107.19C2272.13 104.772 2270.91 101.576 2270.99 98.2798C2270.91 96.6426 2271.18 95.0073 2271.76 93.4749C2272.34 91.9425 2273.23 90.5454 2274.37 89.3698C2275.43 88.2315 2276.71 87.3234 2278.13 86.7024C2279.55 86.0814 2281.09 85.7609 2282.64 85.7609C2284.19 85.7609 2285.73 86.0814 2287.15 86.7024C2288.57 87.3234 2289.85 88.2315 2290.91 89.3698C2292.04 90.5553 2292.92 91.9543 2293.49 93.4844C2294.07 95.0146 2294.34 96.645 2294.28 98.2798C2294.34 101.584 2293.11 104.781 2290.85 107.19Z" fill="#FCB514"/>
<path d="M2386.68 110.8C2382.14 110.8 2378.82 108.7 2376.68 104.57L2404.22 93.1602L2403.29 90.8302C2402.56 88.9519 2401.6 87.1716 2400.43 85.5302C2399.31 83.9423 2397.96 82.53 2396.43 81.3402C2394.93 80.1649 2393.24 79.2582 2391.43 78.6602C2389.58 78.0225 2387.63 77.7079 2385.67 77.7302C2383.07 77.6823 2380.48 78.1809 2378.09 79.1938C2375.69 80.2066 2373.53 81.7111 2371.75 83.6102C2368.05 87.6084 2366.07 92.8961 2366.22 98.3402C2366.16 101.056 2366.65 103.756 2367.66 106.277C2368.67 108.798 2370.18 111.089 2372.1 113.01C2374.28 115.142 2376.9 116.77 2379.77 117.779C2382.65 118.787 2385.71 119.152 2388.74 118.847C2391.78 118.542 2394.7 117.574 2397.32 116.012C2399.94 114.451 2402.18 112.334 2403.89 109.81L2396.89 105.15C2395.83 106.902 2394.33 108.346 2392.54 109.338C2390.75 110.329 2388.73 110.833 2386.68 110.8ZM2378.36 89.0802C2379.33 88.0212 2380.51 87.1711 2381.82 86.5815C2383.13 85.9918 2384.55 85.675 2385.99 85.6502C2387.66 85.6239 2389.31 86.0451 2390.76 86.8702C2392.06 87.5582 2393.08 88.665 2393.67 90.0102L2375.27 97.6402C2375.16 96.0765 2375.37 94.5065 2375.91 93.0319C2376.44 91.5573 2377.27 90.2109 2378.36 89.0802Z" fill="#EE372C"/>
<path d="M2338 82.2699H2337.71C2335.09 79.1799 2331.48 77.6699 2326.88 77.6699C2324.27 77.6717 2321.69 78.2157 2319.3 79.2675C2316.91 80.3193 2314.76 81.8559 2313 83.7799C2311.1 85.7046 2309.6 87.9885 2308.59 90.4986C2307.58 93.0087 2307.08 95.6947 2307.12 98.3999C2307.08 101.086 2307.58 103.752 2308.59 106.241C2309.6 108.73 2311.1 110.991 2313 112.89C2314.78 114.792 2316.94 116.306 2319.34 117.338C2321.73 118.37 2324.31 118.899 2326.92 118.89C2331.58 118.89 2335.19 117.32 2337.75 114.23H2338.04V116.33C2338.04 124.95 2334.37 129.33 2327.04 129.33C2324.8 129.36 2322.61 128.657 2320.81 127.33C2318.98 125.961 2317.56 124.132 2316.67 122.03L2308.81 125.29C2309.56 127.097 2310.57 128.782 2311.81 130.29C2314.24 133.277 2317.5 135.481 2321.18 136.63C2323.1 137.226 2325.11 137.523 2327.12 137.51C2333.24 137.51 2338.12 135.64 2341.51 131.92C2344.9 128.2 2346.69 122.92 2346.69 116.02V79.0199H2338V82.2699ZM2335.38 107.27C2334.41 108.381 2333.21 109.268 2331.86 109.87C2330.52 110.473 2329.06 110.776 2327.58 110.76C2326.03 110.772 2324.5 110.457 2323.09 109.835C2321.67 109.213 2320.41 108.298 2319.37 107.15C2317.17 104.737 2316 101.562 2316.11 98.2999C2316.06 96.666 2316.33 95.0377 2316.91 93.5087C2317.48 91.9796 2318.36 90.5799 2319.48 89.3899C2320.49 88.2373 2321.74 87.3137 2323.13 86.6808C2324.53 86.0479 2326.05 85.7203 2327.58 85.7199C2329.07 85.7039 2330.54 86.0197 2331.89 86.6442C2333.24 87.2687 2334.43 88.1862 2335.38 89.3299C2337.45 91.8611 2338.58 95.0302 2338.58 98.2999C2338.58 101.57 2337.45 104.739 2335.38 107.27Z" fill="#487CBE"/>
<path d="M2101.16 26.0801H2035.48V275.74H2101.16V26.0801Z" fill="#FCB514"/>
<path d="M559.93 288.61H617.11V175.89H559.93V288.61Z" fill="#D6D6D6"/>
<path d="M311.32 252.57L335.77 270.33L328.84 249L311.32 252.57Z" fill="white"/>
<path d="M379.5 288.61H492.39V175.89H379.5V288.61Z" fill="#00B67A"/>
<path d="M504.15 288.61H561.27V175.89H504.15V288.61Z" fill="#00B67A"/>
<path d="M475.74 223.87H445.52L436.15 195.16L426.78 223.87H396.56L421 241.63L411.63 270.33L475.74 223.87Z" fill="white"/>
<path d="M436.15 252.57L460.6 270.33L453.6 248.96L436.15 252.57Z" fill="white"/>
<path d="M254.73 288.61H367.56V175.89H254.73V288.61Z" fill="#00B67A"/>
<path d="M129.9 288.61H242.73V175.89H129.9V288.61Z" fill="#00B67A"/>
<path d="M226.66 224.16H196L186.45 195.34L176.96 224.16H146.26L171.12 242L161.57 270.82L226.66 224.16Z" fill="white"/>
<path d="M185.27 252.69L209.6 270.8L202.67 248.9L185.27 252.69Z" fill="white"/>
<path d="M5.17969 288.61H118V175.89H5.17969V288.61Z" fill="#00B67A"/>
<path d="M101.37 223.87H71.1502L61.8302 195.16L52.4602 223.87H22.2402L46.6902 241.63L37.3202 270.33L101.37 223.87Z" fill="white"/>
<path d="M61.8301 252.57L86.2301 270.33L79.3001 249L61.8301 252.57Z" fill="white"/>
<path d="M600.46 223.87H570.24L560.859 195.16L551.49 223.87H521.27L545.729 241.63L536.349 270.33L600.46 223.87Z" fill="white"/>
<path d="M560.86 252.57L585.32 270.33L578.39 249L560.86 252.57Z" fill="white"/>
<path d="M350.681 223.87H320.461L311.091 195.16L301.711 223.87H271.551L296.001 241.63L286.621 270.33L350.681 223.87Z" fill="white"/>
<path d="M311.09 252.57L335.54 270.33L328.61 249L311.09 252.57Z" fill="white"/>
<path d="M147.65 50.6H204.65V61.54H182.41V123.26H169.9V61.54H147.6L147.65 50.6ZM202.15 70.6H212.69V80.81C213.054 79.3214 213.707 77.9184 214.61 76.68C216.597 73.8316 219.34 71.5943 222.53 70.22C224.126 69.6011 225.818 69.2628 227.53 69.22H231.72V80.58C230.932 80.4096 230.133 80.2927 229.33 80.23H226.9C225.044 80.2271 223.211 80.6442 221.54 81.45C219.841 82.2239 218.361 83.4056 217.23 84.89C215.881 86.589 214.864 88.5258 214.23 90.6C213.459 93.1064 213.088 95.7183 213.13 98.34V123.34H201.69V70.68L202.15 70.6ZM283.49 123.18H272.49V115.9C271.082 118.562 268.94 120.766 266.32 122.25C263.823 123.811 260.944 124.655 258 124.69C255.346 124.953 252.667 124.632 250.151 123.747C247.635 122.862 245.344 121.436 243.44 119.57C240.141 115.08 238.565 109.554 239 104V70.68H250.41V102.68C250.067 106.141 250.975 109.611 252.97 112.46C253.883 113.432 254.996 114.195 256.231 114.698C257.467 115.2 258.797 115.429 260.13 115.37C262.094 115.393 264.04 114.998 265.84 114.21C267.329 113.512 268.642 112.487 269.68 111.21C270.692 109.88 271.408 108.349 271.78 106.72C272.242 104.855 272.477 102.941 272.48 101.02V70.62H283.89L283.49 123.18ZM302.59 106.41C302.613 107.809 302.968 109.183 303.625 110.419C304.282 111.655 305.223 112.718 306.37 113.52C308.711 114.9 311.393 115.593 314.11 115.52C315.318 115.513 316.525 115.416 317.72 115.23C319.023 115.074 320.299 114.738 321.51 114.23C322.635 113.779 323.633 113.062 324.42 112.14C325.181 111.094 325.572 109.823 325.53 108.53C325.523 107.844 325.38 107.166 325.108 106.536C324.837 105.906 324.443 105.336 323.95 104.86C322.844 103.871 321.562 103.101 320.17 102.59C318.445 101.962 316.673 101.473 314.87 101.13L308.87 99.73C306.87 99.27 304.74 98.63 302.82 98.05C300.951 97.4074 299.201 96.4614 297.64 95.25C296.077 94.0998 294.8 92.6043 293.91 90.88C292.922 88.7915 292.443 86.4992 292.51 84.19C292.402 81.6518 293.102 79.1448 294.51 77.03C295.815 75.1045 297.551 73.5092 299.58 72.37C301.732 71.16 304.071 70.3152 306.5 69.87C308.807 69.4174 311.149 69.1631 313.5 69.11C316.032 69.0962 318.557 69.4088 321.01 70.04C323.339 70.5556 325.551 71.5055 327.53 72.84C329.467 74.1562 331.111 75.8584 332.36 77.84C333.786 80.182 334.687 82.8058 335 85.53H323.6C323.508 84.3501 323.126 83.2112 322.487 82.2149C321.849 81.2186 320.974 80.3958 319.94 79.82C317.869 78.767 315.561 78.2675 313.24 78.37C312.291 78.31 311.339 78.31 310.39 78.37C309.339 78.531 308.305 78.7854 307.3 79.13C306.412 79.527 305.603 80.079 304.91 80.76C304.246 81.5596 303.891 82.5709 303.91 83.61C303.894 84.2424 304.011 84.871 304.254 85.455C304.497 86.039 304.86 86.5654 305.32 87C306.426 87.9496 307.688 88.7006 309.05 89.22C310.751 89.8526 312.505 90.3377 314.29 90.67L320.4 92.01C322.431 92.4788 324.434 93.0631 326.4 93.76C328.318 94.3381 330.115 95.2635 331.7 96.49C333.367 97.7582 334.704 99.4108 335.595 101.307C336.487 103.203 336.907 105.287 336.82 107.38C336.928 110.157 336.234 112.907 334.82 115.3C333.449 117.44 331.622 119.249 329.47 120.6C327.179 121.946 324.707 122.957 322.13 123.6C319.505 124.2 316.822 124.512 314.13 124.53C311.093 124.576 308.064 124.202 305.13 123.42C302.603 122.724 300.228 121.56 298.13 119.99C296.149 118.467 294.538 116.515 293.42 114.28C292.242 111.745 291.624 108.985 291.61 106.19H303L302.59 106.41ZM339.59 70.6H348.09V54.85H359.5V70.62H369.6V79.3H359.24V110.57C359.317 111.373 359.573 112.149 359.99 112.84C360.352 113.462 360.907 113.95 361.57 114.23C362.528 114.586 363.548 114.746 364.57 114.7H366.9C367.709 114.701 368.514 114.583 369.29 114.35V123.35L365.68 123.81H362C359.603 123.874 357.21 123.58 354.9 122.94C353.291 122.494 351.84 121.608 350.71 120.38C349.617 119.217 348.887 117.761 348.61 116.19C348.251 114.306 348.037 112.397 347.97 110.48V79.48H339.7V70.68H339.59V70.6ZM377.31 70.6H388V77.71C389.393 74.8059 391.735 72.4637 394.64 71.07C397.512 69.7059 400.66 69.0215 403.84 69.07C407.441 68.9518 411.017 69.7102 414.26 71.28C417.28 72.6089 419.919 74.6714 421.94 77.28C423.992 79.9523 425.479 83.0145 426.31 86.28C427.278 89.8233 427.729 93.4878 427.65 97.16C427.7 100.604 427.248 104.036 426.31 107.35C425.5 110.51 424.147 113.505 422.31 116.2C420.511 118.755 418.137 120.851 415.38 122.32C412.406 123.95 409.049 124.755 405.66 124.65C404.019 124.637 402.383 124.48 400.77 124.18C399.153 123.825 397.572 123.32 396.05 122.67C394.549 122.031 393.156 121.164 391.92 120.1C390.67 119.03 389.59 117.776 388.72 116.38V142.52H377.29V70.61L377.31 70.6ZM416.56 96.92C416.573 94.578 416.26 92.2457 415.63 89.99C415.056 87.9554 414.151 86.0295 412.95 84.29C411.791 82.626 410.304 81.217 408.58 80.15C405.823 78.6518 402.624 78.1812 399.552 78.8222C396.481 79.4632 393.737 81.1742 391.81 83.65C389.3 87.6385 388.053 92.2912 388.23 97C388.181 99.4837 388.518 101.96 389.23 104.34C389.801 106.379 390.74 108.297 392 110C393.169 111.592 394.679 112.904 396.42 113.84C398.288 114.876 400.405 115.381 402.54 115.3C404.79 115.485 407.047 115.042 409.06 114.02C410.79 112.965 412.26 111.533 413.36 109.83C414.512 108.082 415.36 106.151 415.87 104.12C416.334 101.755 416.576 99.3507 416.59 96.94L416.56 96.92ZM436.35 50.52H447.76V61.48H436.38L436.35 50.52ZM436.35 70.52H447.76V123.09H436.38L436.35 70.52ZM457.55 50.52H469V123.24H457.58L457.55 50.52ZM503.19 124.64C499.459 124.672 495.76 123.958 492.31 122.54C489.266 121.218 486.535 119.269 484.296 116.82C482.056 114.372 480.357 111.479 479.31 108.33C478.09 104.652 477.502 100.794 477.57 96.92C477.562 93.1646 478.15 89.4318 479.31 85.86C480.293 82.6436 481.965 79.6801 484.21 77.1759C486.455 74.6717 489.219 72.687 492.31 71.36C499.278 68.5729 507.051 68.5729 514.02 71.36C517.086 72.6814 519.845 74.6259 522.12 77.07C524.379 79.6204 526.082 82.6142 527.12 85.86C528.317 89.4231 528.908 93.1615 528.87 96.92C528.939 100.795 528.347 104.654 527.12 108.33C526.08 111.578 524.377 114.574 522.12 117.13C519.858 119.587 517.096 121.53 514.02 122.83C510.576 124.185 506.887 124.802 503.19 124.64ZM503.19 115.44C505.446 115.531 507.689 115.049 509.71 114.04C511.512 112.987 513.049 111.532 514.2 109.79C515.406 108.058 516.293 106.124 516.82 104.08C517.398 101.758 517.69 99.3733 517.69 96.98C517.69 94.7021 517.397 92.4335 516.82 90.23C516.293 88.1859 515.406 86.2522 514.2 84.52C513.047 82.7953 511.51 81.3611 509.71 80.33C507.708 79.2663 505.476 78.71 503.21 78.71C500.943 78.71 498.711 79.2663 496.71 80.33C494.925 81.3783 493.395 82.8093 492.23 84.52C491.039 86.2612 490.153 88.192 489.61 90.23C489.032 92.4335 488.739 94.7021 488.74 96.98C488.743 99.2775 489.035 101.565 489.61 103.79C490.132 105.836 491.019 107.77 492.23 109.5C493.38 111.24 494.912 112.693 496.71 113.75C498.674 114.932 500.939 115.519 503.23 115.44H503.19ZM532.19 70.55H540.69V54.85H552.1V70.62H562.23V79.3H551.9V107.42C551.84 108.469 551.84 109.521 551.9 110.57C551.955 111.371 552.194 112.147 552.6 112.84C552.966 113.477 553.542 113.968 554.23 114.23C555.186 114.594 556.208 114.754 557.23 114.7H559.61C560.419 114.701 561.224 114.583 562 114.35V123.35L558.33 123.81H554.72C552.303 123.873 549.891 123.58 547.56 122.94C545.951 122.494 544.5 121.608 543.37 120.38C542.353 119.179 541.664 117.736 541.37 116.19C540.981 114.31 540.767 112.399 540.73 110.48V79.48H532.4V70.68L532.19 70.55Z" fill="#00B67A"/>
<path d="M134.61 50.6H83.2L67.31 0L51.31 50.6L0 50.54L41.63 81.86L25.73 132.4L67.36 101.13L108.94 132.4L93 81.86L134.61 50.6Z" fill="#00B67A"/>
<path d="M96.5905 93.2198L93.0005 81.7998L67.3105 101.08L96.5905 93.2198Z" fill="#005128"/>
<path d="M1743.09 329.14L1742.74 328.96L1601.08 247.16V97.3501L1601.43 97.1201L1743.09 15.3101L1885.03 97.3101V247.16L1884.68 247.39L1743.09 329.14ZM1602.48 246.34L1743 327.51L1883.55 246.34V98.1601L1743 17.0001L1602.48 98.1601V246.34Z" fill="#667A7E"/>
<path d="M1877.12 242.97V101.6L1743.09 24.1602L1609 101.6V242.97L1743.09 320.34L1877.12 242.97Z" fill="#667A7E"/>
<path d="M1876.01 131.93H1610.05V215.42H1876.01V131.93Z" fill="#0C323C"/>
<path d="M1861.98 142.53V109.58L1743.09 40.9302L1624.13 109.58V142.53H1861.98Z" fill="white"/>
<path d="M1624.13 201.98V234.93L1743.09 303.58L1861.98 234.93V201.98H1624.13Z" fill="white"/>
<path d="M1704 148.93H1711.51V195.16H1704V148.93Z" fill="white"/>
<path d="M1737.5 180.49C1737.5 187.65 1731.62 188.29 1729.69 188.29C1725.15 188.29 1724.51 184.04 1724.51 181.77V163.9H1717V181.48C1717 185.73 1718.28 189.63 1720.9 191.9C1722.06 193.017 1723.44 193.883 1724.96 194.444C1726.47 195.005 1728.08 195.248 1729.69 195.16C1732.31 195.16 1735.57 194.52 1737.5 192.54V195.16H1745V163.9H1737.49V180.49H1737.5Z" fill="white"/>
<path d="M1759.68 152.54H1752.17V164H1746.64V171.1H1752.17V195.2H1759.68V171.1H1765.21V163.9H1759.68V152.54Z" fill="white"/>
<path d="M1788.62 185.73C1786.86 187.135 1784.69 187.931 1782.44 188C1777.26 188 1773.65 184.1 1773.65 178.92C1773.59 177.75 1773.78 176.58 1774.2 175.486C1774.62 174.392 1775.26 173.399 1776.09 172.57C1776.92 171.742 1777.91 171.096 1779.01 170.676C1780.1 170.256 1781.27 170.07 1782.44 170.13C1783.57 170.083 1784.7 170.259 1785.76 170.649C1786.82 171.038 1787.79 171.633 1788.62 172.4L1789.62 173.4L1794.8 168.51L1793.52 167.51C1790.48 164.776 1786.54 163.262 1782.45 163.26C1778.44 163.578 1774.69 165.396 1771.96 168.352C1769.23 171.308 1767.71 175.185 1767.71 179.21C1767.71 183.235 1769.23 187.112 1771.96 190.068C1774.69 193.024 1778.44 194.842 1782.45 195.16C1786.54 195.158 1790.48 193.645 1793.52 190.91L1794.8 189.91L1789.62 184.73L1788.62 185.73Z" fill="white"/>
<path d="M1821.16 166.52C1820.12 165.412 1818.86 164.546 1817.45 163.982C1816.04 163.419 1814.52 163.172 1813.01 163.26C1811.7 163.191 1810.39 163.388 1809.16 163.838C1807.93 164.288 1806.8 164.983 1805.85 165.88V148.93H1798.34V195.16H1805.85V177.93C1805.85 170.77 1810.74 170.13 1812.66 170.13C1817.2 170.13 1816.91 174.38 1816.91 176.65V194.87H1824.42V177C1824.42 172.69 1823.43 168.79 1821.16 166.52Z" fill="white"/>
<path d="M1782.09 184.39C1784.95 184.39 1787.27 182.071 1787.27 179.21C1787.27 176.349 1784.95 174.03 1782.09 174.03C1779.23 174.03 1776.91 176.349 1776.91 179.21C1776.91 182.071 1779.23 184.39 1782.09 184.39Z" fill="#EF4335"/>
<path d="M1693.6 183.75C1690.72 186.514 1686.87 188.04 1682.88 188C1674.73 188 1668.88 181.48 1668.88 172.69C1668.88 163.9 1674.76 157.38 1683.2 157.38C1687.23 157.423 1691.08 159.055 1693.91 161.92L1694.91 162.92L1699.81 158.03L1698.81 157.03C1696.77 154.963 1694.34 153.323 1691.66 152.204C1688.98 151.084 1686.1 150.509 1683.2 150.51C1670.86 150.16 1661.72 159.94 1661.72 172.63C1661.72 185.32 1670.8 195.11 1682.85 195.11C1685.76 195.151 1688.65 194.593 1691.33 193.469C1694.02 192.346 1696.45 190.681 1698.46 188.58L1699.46 187.58L1694.57 182.69L1693.6 183.75Z" fill="white"/>
<path d="M1732.31 85H1727.31V84H1738.43V85H1733.43V97.81H1732.38V85H1732.31Z" fill="black"/>
<path d="M1736.68 92.9199C1736.68 91.931 1736.97 90.9643 1737.52 90.1421C1738.07 89.3198 1738.85 88.679 1739.77 88.3005C1740.68 87.9221 1741.69 87.8231 1742.66 88.016C1743.63 88.2089 1744.52 88.6851 1745.22 89.3844C1745.91 90.0837 1746.39 90.9746 1746.58 91.9445C1746.78 92.9144 1746.68 93.9197 1746.3 94.8333C1745.92 95.747 1745.28 96.5279 1744.46 97.0773C1743.64 97.6267 1742.67 97.9199 1741.68 97.9199C1741.01 97.956 1740.35 97.8514 1739.72 97.6129C1739.1 97.3744 1738.54 97.0073 1738.06 96.5356C1737.59 96.0639 1737.23 95.4982 1736.99 94.8752C1736.75 94.2522 1736.64 93.586 1736.68 92.9199ZM1745.68 92.9199C1745.68 91.8591 1745.26 90.8416 1744.51 90.0915C1743.76 89.3414 1742.74 88.9199 1741.68 88.9199C1740.62 88.9199 1739.6 89.3414 1738.85 90.0915C1738.1 90.8416 1737.68 91.8591 1737.68 92.9199C1737.68 93.9808 1738.1 94.9982 1738.85 95.7484C1739.6 96.4985 1740.62 96.9199 1741.68 96.9199C1742.74 96.9199 1743.76 96.4985 1744.51 95.7484C1745.26 94.9982 1745.68 93.9808 1745.68 92.9199Z" fill="black"/>
<path d="M1748.5 101.89V87.9998H1749.43V90.3298C1749.84 89.5631 1750.45 88.927 1751.2 88.4951C1751.95 88.0633 1752.81 87.8534 1753.68 87.8898C1755.02 87.9123 1756.29 88.4644 1757.22 89.4246C1758.14 90.3848 1758.65 91.6744 1758.63 93.0098C1758.61 94.3452 1758.06 95.6169 1757.1 96.5452C1756.14 97.4735 1754.85 97.9823 1753.51 97.9598C1752.68 97.9763 1751.86 97.7543 1751.15 97.3201C1750.44 96.8859 1749.87 96.2577 1749.51 95.5098V101.86L1748.5 101.89ZM1757.5 92.8898C1757.54 92.3501 1757.47 91.8072 1757.29 91.2981C1757.1 90.789 1756.81 90.3256 1756.43 89.9394C1756.05 89.5532 1755.59 89.2533 1755.09 89.0601C1754.58 88.8669 1754.04 88.7849 1753.5 88.8198C1752.67 88.7919 1751.86 89.0126 1751.16 89.4534C1750.46 89.8941 1749.9 90.5347 1749.57 91.2925C1749.24 92.0502 1749.14 92.8904 1749.29 93.7044C1749.44 94.5185 1749.83 95.2691 1750.41 95.8594C1750.99 96.4496 1751.73 96.8525 1752.54 97.0159C1753.35 97.1793 1754.2 97.0958 1754.96 96.7762C1755.72 96.4565 1756.37 95.9154 1756.83 95.2227C1757.28 94.5299 1757.51 93.7173 1757.5 92.8898Z" fill="black"/>
<path d="M1657.5 124.25C1656.84 124.917 1656.04 125.446 1655.17 125.804C1654.3 126.163 1653.37 126.345 1652.43 126.34C1651.49 126.401 1650.55 126.262 1649.67 125.933C1648.78 125.604 1647.98 125.092 1647.31 124.431C1646.64 123.77 1646.12 122.975 1645.78 122.097C1645.43 121.22 1645.28 120.28 1645.33 119.34C1645.27 118.39 1645.41 117.437 1645.75 116.546C1646.08 115.654 1646.6 114.844 1647.27 114.168C1647.94 113.491 1648.75 112.965 1649.64 112.622C1650.53 112.28 1651.48 112.129 1652.43 112.18C1654.33 112.179 1656.15 112.93 1657.5 114.27L1656.74 114.91C1655.59 113.783 1654.04 113.158 1652.43 113.17C1651.61 113.126 1650.79 113.256 1650.03 113.551C1649.26 113.847 1648.57 114.301 1647.99 114.884C1647.41 115.467 1646.97 116.165 1646.68 116.933C1646.39 117.701 1646.27 118.522 1646.32 119.34C1646.38 122.6 1648.41 125.34 1652.43 125.34C1654.04 125.353 1655.59 124.727 1656.74 123.6L1657.5 124.25Z" fill="black"/>
<path d="M1658.72 121.34C1658.62 120.631 1658.67 119.909 1658.87 119.222C1659.08 118.535 1659.42 117.899 1659.89 117.358C1660.36 116.817 1660.94 116.383 1661.59 116.086C1662.25 115.789 1662.95 115.635 1663.67 115.635C1664.39 115.635 1665.09 115.789 1665.75 116.086C1666.4 116.383 1666.98 116.817 1667.45 117.358C1667.92 117.899 1668.26 118.535 1668.47 119.222C1668.67 119.909 1668.72 120.631 1668.62 121.34C1668.72 122.049 1668.67 122.772 1668.47 123.459C1668.26 124.146 1667.92 124.781 1667.45 125.322C1666.98 125.863 1666.4 126.297 1665.75 126.594C1665.09 126.892 1664.39 127.045 1663.67 127.045C1662.95 127.045 1662.25 126.892 1661.59 126.594C1660.94 126.297 1660.36 125.863 1659.89 125.322C1659.42 124.781 1659.08 124.146 1658.87 123.459C1658.67 122.772 1658.62 122.049 1658.72 121.34ZM1667.72 121.34C1667.72 120.279 1667.3 119.262 1666.55 118.512C1665.8 117.762 1664.78 117.34 1663.72 117.34C1662.66 117.34 1661.64 117.762 1660.89 118.512C1660.14 119.262 1659.72 120.279 1659.72 121.34C1659.72 122.401 1660.14 123.418 1660.89 124.169C1661.64 124.919 1662.66 125.34 1663.72 125.34C1664.78 125.34 1665.8 124.919 1666.55 124.169C1667.3 123.418 1667.72 122.401 1667.72 121.34Z" fill="black"/>
<path d="M1671.47 116.39V118.13C1671.82 117.524 1672.33 117.025 1672.95 116.687C1673.56 116.348 1674.26 116.184 1674.96 116.21C1675.54 116.162 1676.13 116.24 1676.68 116.438C1677.23 116.636 1677.74 116.949 1678.16 117.358C1678.57 117.766 1678.9 118.26 1679.12 118.805C1679.33 119.351 1679.42 119.935 1679.39 120.52V126.17H1678.39V120.52C1678.43 120.056 1678.37 119.588 1678.21 119.15C1678.05 118.713 1677.79 118.317 1677.46 117.994C1677.12 117.67 1676.72 117.426 1676.28 117.28C1675.83 117.134 1675.36 117.089 1674.9 117.15C1674.44 117.144 1673.98 117.233 1673.55 117.411C1673.12 117.588 1672.74 117.851 1672.42 118.184C1672.09 118.516 1671.84 118.911 1671.68 119.343C1671.51 119.776 1671.44 120.238 1671.46 120.7V126.17H1670.46V116.39H1671.47Z" fill="black"/>
<path d="M1683.35 113.48V116.48H1686.67V117.29H1683.35V123.23C1683.35 124.57 1683.64 125.5 1685.15 125.5C1685.68 125.469 1686.2 125.33 1686.67 125.09L1687.02 125.91C1686.44 126.216 1685.8 126.393 1685.15 126.43C1683.06 126.43 1682.42 125.21 1682.42 123.29V117.35H1680.32V116.53H1682.42V113.68L1683.35 113.48Z" fill="black"/>
<path d="M1688 121.28C1687.98 120.615 1688.1 119.954 1688.34 119.335C1688.59 118.717 1688.95 118.154 1689.42 117.681C1689.89 117.207 1690.45 116.833 1691.06 116.58C1691.68 116.328 1692.33 116.202 1693 116.21C1695.73 116.21 1698.18 117.9 1697.83 121.74H1689.04C1689.1 122.746 1689.55 123.689 1690.3 124.364C1691.05 125.04 1692.03 125.394 1693.04 125.35C1693.71 125.366 1694.37 125.24 1694.98 124.979C1695.59 124.719 1696.14 124.33 1696.59 123.84L1697.29 124.42C1696.77 125.019 1696.13 125.497 1695.4 125.82C1694.68 126.143 1693.89 126.304 1693.1 126.29C1692.42 126.343 1691.75 126.25 1691.11 126.018C1690.47 125.786 1689.89 125.42 1689.41 124.946C1688.93 124.471 1688.55 123.898 1688.31 123.266C1688.06 122.633 1687.96 121.956 1688 121.28ZM1696.91 120.93C1696.91 118.48 1695.28 117.15 1692.91 117.15C1692.4 117.127 1691.88 117.208 1691.4 117.387C1690.92 117.566 1690.48 117.84 1690.11 118.192C1689.74 118.545 1689.44 118.969 1689.23 119.439C1689.03 119.91 1688.92 120.416 1688.91 120.93H1696.91Z" fill="black"/>
<path d="M1700.82 116.39V118.13C1701.17 117.522 1701.68 117.022 1702.3 116.684C1702.91 116.345 1703.61 116.182 1704.31 116.21C1704.89 116.162 1705.48 116.24 1706.03 116.438C1706.58 116.636 1707.08 116.949 1707.5 117.358C1707.92 117.767 1708.25 118.26 1708.46 118.806C1708.67 119.351 1708.76 119.936 1708.73 120.52V126.17H1707.73V120.52C1707.78 120.056 1707.71 119.588 1707.55 119.15C1707.39 118.713 1707.13 118.318 1706.8 117.994C1706.46 117.67 1706.06 117.426 1705.62 117.28C1705.17 117.134 1704.7 117.089 1704.24 117.15C1703.78 117.144 1703.32 117.233 1702.89 117.411C1702.47 117.589 1702.08 117.852 1701.76 118.184C1701.44 118.517 1701.19 118.912 1701.02 119.344C1700.86 119.777 1700.79 120.238 1700.81 120.7V126.17H1699.81V116.39H1700.82Z" fill="black"/>
<path d="M1712.69 113.48V116.48H1716V117.29H1712.68V123.23C1712.68 124.57 1712.97 125.5 1714.49 125.5C1715.02 125.469 1715.53 125.33 1716 125.09L1716.35 125.91C1715.78 126.216 1715.14 126.393 1714.49 126.43C1712.39 126.43 1711.75 125.21 1711.75 123.29V117.35H1709.66V116.53H1711.75V113.68L1712.69 113.48Z" fill="black"/>
<path d="M1734.7 119.12C1734.76 122.68 1732.55 126.23 1727.7 126.23H1722.98V112.37H1727.7C1728.61 112.311 1729.53 112.444 1730.39 112.759C1731.25 113.074 1732.03 113.565 1732.69 114.2C1733.35 114.835 1733.87 115.601 1734.21 116.448C1734.56 117.295 1734.73 118.205 1734.7 119.12ZM1724.05 113.36V125.18H1727.66C1729.23 125.18 1730.73 124.557 1731.84 123.449C1732.95 122.341 1733.57 120.837 1733.57 119.27C1733.57 117.703 1732.95 116.199 1731.84 115.091C1730.73 113.983 1729.23 113.36 1727.66 113.36H1724.05Z" fill="black"/>
<path d="M1736.39 121.28C1736.37 120.62 1736.49 119.962 1736.73 119.347C1736.97 118.732 1737.33 118.172 1737.79 117.699C1738.26 117.226 1738.81 116.851 1739.42 116.595C1740.03 116.339 1740.68 116.208 1741.34 116.21C1744.08 116.21 1746.52 117.9 1746.17 121.74H1737.38C1737.44 122.746 1737.89 123.689 1738.64 124.364C1739.39 125.04 1740.37 125.394 1741.38 125.35C1742.05 125.366 1742.71 125.24 1743.32 124.98C1743.93 124.719 1744.48 124.331 1744.93 123.84L1745.63 124.42C1745.11 125.019 1744.47 125.497 1743.74 125.82C1743.02 126.143 1742.23 126.304 1741.44 126.29C1740.77 126.33 1740.1 126.229 1739.47 125.992C1738.84 125.755 1738.27 125.388 1737.79 124.915C1737.32 124.442 1736.95 123.874 1736.7 123.247C1736.46 122.621 1736.36 121.951 1736.39 121.28ZM1745.39 120.93C1745.39 118.48 1743.76 117.15 1741.39 117.15C1740.88 117.127 1740.37 117.208 1739.88 117.387C1739.4 117.566 1738.96 117.84 1738.59 118.193C1738.22 118.545 1737.92 118.969 1737.71 119.439C1737.51 119.91 1737.4 120.417 1737.39 120.93H1745.39Z" fill="black"/>
<path d="M1747.22 116.39H1748.22L1751.77 125.06L1755.32 116.39H1756.37L1752.29 126.17H1751.29L1747.22 116.39Z" fill="black"/>
<path d="M1757.12 121.28C1757.1 120.615 1757.22 119.954 1757.46 119.335C1757.71 118.717 1758.07 118.154 1758.54 117.681C1759.01 117.207 1759.57 116.833 1760.18 116.58C1760.8 116.328 1761.45 116.202 1762.12 116.21C1764.85 116.21 1767.3 117.9 1766.95 121.74H1758.16C1758.22 122.746 1758.67 123.689 1759.42 124.364C1760.17 125.04 1761.15 125.394 1762.16 125.35C1762.83 125.366 1763.49 125.24 1764.1 124.979C1764.71 124.719 1765.26 124.33 1765.71 123.84L1766.41 124.42C1765.89 125.019 1765.24 125.497 1764.52 125.82C1763.79 126.143 1763 126.304 1762.21 126.29C1761.54 126.341 1760.86 126.247 1760.22 126.015C1759.59 125.782 1759.01 125.416 1758.53 124.942C1758.04 124.467 1757.67 123.895 1757.43 123.263C1757.18 122.631 1757.08 121.955 1757.12 121.28ZM1766.03 120.93C1766.03 118.48 1764.39 117.15 1762.03 117.15C1761.52 117.127 1761 117.208 1760.52 117.387C1760.04 117.566 1759.6 117.84 1759.23 118.192C1758.86 118.545 1758.56 118.969 1758.35 119.439C1758.15 119.91 1758.04 120.416 1758.03 120.93H1766.03Z" fill="black"/>
<path d="M1770 112.31V126.17H1769V112.31H1770Z" fill="black"/>
<path d="M1771.85 121.34C1771.85 120.351 1772.14 119.384 1772.69 118.562C1773.24 117.74 1774.02 117.099 1774.94 116.72C1775.85 116.342 1776.86 116.243 1777.83 116.436C1778.8 116.629 1779.69 117.105 1780.39 117.804C1781.08 118.504 1781.56 119.394 1781.75 120.364C1781.95 121.334 1781.85 122.34 1781.47 123.253C1781.09 124.167 1780.45 124.948 1779.63 125.497C1778.81 126.047 1777.84 126.34 1776.85 126.34C1776.19 126.364 1775.53 126.251 1774.91 126.008C1774.29 125.765 1773.73 125.397 1773.26 124.928C1772.79 124.459 1772.42 123.898 1772.18 123.281C1771.94 122.664 1771.83 122.003 1771.85 121.34ZM1780.85 121.34C1780.85 120.279 1780.43 119.262 1779.68 118.511C1778.93 117.761 1777.91 117.34 1776.85 117.34C1775.79 117.34 1774.77 117.761 1774.02 118.511C1773.27 119.262 1772.85 120.279 1772.85 121.34C1772.85 122.401 1773.27 123.418 1774.02 124.168C1774.77 124.918 1775.79 125.34 1776.85 125.34C1777.91 125.34 1778.93 124.918 1779.68 124.168C1780.43 123.418 1780.85 122.401 1780.85 121.34Z" fill="black"/>
<path d="M1783.67 130.3V116.45H1784.6V118.78C1785 118.01 1785.62 117.372 1786.37 116.938C1787.12 116.504 1787.98 116.293 1788.85 116.33C1790.19 116.354 1791.46 116.907 1792.38 117.868C1793.31 118.829 1793.82 120.119 1793.79 121.455C1793.77 122.79 1793.22 124.061 1792.26 124.989C1791.3 125.916 1790.01 126.424 1788.67 126.4C1787.84 126.42 1787.02 126.2 1786.31 125.768C1785.6 125.335 1785.03 124.707 1784.67 123.96V130.3H1783.67ZM1792.67 121.3C1792.72 120.759 1792.64 120.215 1792.46 119.705C1792.28 119.195 1791.99 118.73 1791.61 118.343C1791.23 117.955 1790.77 117.654 1790.26 117.461C1789.75 117.267 1789.21 117.185 1788.67 117.22C1787.61 117.272 1786.61 117.73 1785.87 118.5C1785.14 119.27 1784.73 120.292 1784.73 121.355C1784.73 122.418 1785.14 123.44 1785.87 124.209C1786.61 124.979 1787.61 125.438 1788.67 125.49C1789.22 125.511 1789.76 125.415 1790.27 125.207C1790.78 125 1791.23 124.686 1791.61 124.287C1791.98 123.888 1792.27 123.413 1792.45 122.894C1792.62 122.375 1792.68 121.825 1792.63 121.28L1792.67 121.3Z" fill="black"/>
<path d="M1810.1 126.17V120.29C1810.13 119.867 1810.07 119.444 1809.92 119.046C1809.77 118.649 1809.54 118.287 1809.25 117.985C1808.95 117.683 1808.59 117.447 1808.2 117.292C1807.81 117.138 1807.38 117.069 1806.96 117.09C1806.53 117.081 1806.11 117.16 1805.72 117.322C1805.32 117.484 1804.97 117.726 1804.67 118.032C1804.38 118.338 1804.15 118.702 1804 119.101C1803.85 119.5 1803.79 119.925 1803.81 120.35V126.17H1802.81V120.35C1802.83 119.922 1802.77 119.494 1802.62 119.091C1802.48 118.688 1802.25 118.32 1801.95 118.009C1801.66 117.697 1801.3 117.449 1800.91 117.28C1800.52 117.11 1800.09 117.022 1799.66 117.022C1799.24 117.022 1798.81 117.11 1798.42 117.28C1798.02 117.449 1797.67 117.697 1797.38 118.009C1797.08 118.32 1796.85 118.688 1796.71 119.091C1796.56 119.494 1796.5 119.922 1796.52 120.35V126.17H1795.52V116.39H1796.46V118C1796.77 117.429 1797.23 116.956 1797.8 116.636C1798.37 116.316 1799.01 116.162 1799.66 116.19C1800.45 116.145 1801.23 116.361 1801.88 116.804C1802.53 117.246 1803.02 117.892 1803.27 118.64C1803.54 117.904 1804.03 117.272 1804.68 116.832C1805.33 116.392 1806.1 116.168 1806.88 116.19C1807.43 116.168 1807.97 116.261 1808.48 116.462C1808.99 116.663 1809.45 116.969 1809.83 117.359C1810.21 117.749 1810.51 118.214 1810.7 118.726C1810.9 119.238 1810.98 119.784 1810.95 120.33V126.21H1810.08L1810.1 126.17Z" fill="black"/>
<path d="M1812.84 121.28C1812.82 120.615 1812.94 119.954 1813.18 119.335C1813.43 118.717 1813.79 118.154 1814.26 117.681C1814.73 117.207 1815.29 116.833 1815.9 116.58C1816.52 116.328 1817.17 116.202 1817.84 116.21C1820.57 116.21 1823.02 117.9 1822.67 121.74H1813.88C1813.94 122.746 1814.39 123.689 1815.14 124.364C1815.89 125.04 1816.87 125.394 1817.88 125.35C1818.54 125.366 1819.21 125.24 1819.82 124.979C1820.43 124.719 1820.98 124.33 1821.43 123.84L1822.13 124.42C1821.61 125.019 1820.96 125.497 1820.24 125.82C1819.51 126.143 1818.72 126.304 1817.93 126.29C1817.25 126.341 1816.58 126.247 1815.94 126.015C1815.31 125.782 1814.73 125.416 1814.25 124.942C1813.76 124.467 1813.39 123.895 1813.15 123.263C1812.9 122.631 1812.8 121.955 1812.84 121.28ZM1821.74 120.93C1821.74 118.48 1820.11 117.15 1817.74 117.15C1817.23 117.127 1816.71 117.208 1816.23 117.387C1815.75 117.566 1815.31 117.84 1814.94 118.192C1814.57 118.545 1814.27 118.969 1814.06 119.439C1813.86 119.91 1813.75 120.416 1813.74 120.93H1821.74Z" fill="black"/>
<path d="M1825.7 116.39V118.13C1826.05 117.523 1826.57 117.024 1827.18 116.686C1827.8 116.347 1828.5 116.183 1829.2 116.21C1829.78 116.162 1830.37 116.24 1830.92 116.438C1831.47 116.636 1831.97 116.949 1832.39 117.358C1832.81 117.767 1833.14 118.26 1833.35 118.806C1833.56 119.351 1833.65 119.936 1833.62 120.52V126.17H1832.62V120.52C1832.66 120.056 1832.6 119.588 1832.44 119.15C1832.28 118.713 1832.02 118.318 1831.69 117.994C1831.35 117.67 1830.95 117.426 1830.5 117.28C1830.06 117.134 1829.59 117.089 1829.13 117.15C1828.67 117.144 1828.21 117.233 1827.78 117.411C1827.35 117.588 1826.97 117.852 1826.64 118.184C1826.32 118.516 1826.07 118.911 1825.91 119.343C1825.74 119.776 1825.67 120.238 1825.69 120.7V126.17H1824.69V116.39H1825.7Z" fill="black"/>
<path d="M1837.58 113.48V116.48H1840.9V117.29H1837.58V123.23C1837.58 124.57 1837.87 125.5 1839.39 125.5C1839.92 125.469 1840.43 125.33 1840.9 125.09L1841.25 125.91C1840.67 126.216 1840.04 126.393 1839.39 126.43C1837.29 126.43 1836.65 125.21 1836.65 123.29V117.35H1834.55V116.53H1836.65V113.68L1837.58 113.48Z" fill="black"/>
<path d="M1742.44 219.79V228.41C1742.44 235.69 1731.85 235.69 1731.85 228.41V219.79H1732.9V228.41C1732.9 229.537 1733.35 230.618 1734.14 231.415C1734.94 232.212 1736.02 232.66 1737.15 232.66C1738.28 232.66 1739.36 232.212 1740.15 231.415C1740.95 230.618 1741.4 229.537 1741.4 228.41V219.79H1742.44Z" fill="black"/>
<path d="M1754 222.47C1753 220.84 1751.38 220.61 1749.81 220.61C1748.24 220.61 1745.62 221.19 1745.62 223.4C1745.62 225.15 1747.54 225.56 1749.87 226.02C1752.55 226.55 1755.34 227.02 1755.34 230.02C1755.34 233.17 1752.2 233.92 1749.87 233.92C1748.74 233.986 1747.6 233.742 1746.6 233.213C1745.59 232.685 1744.75 231.892 1744.16 230.92L1745.09 230.46C1745.59 231.248 1746.29 231.892 1747.12 232.33C1747.95 232.768 1748.87 232.985 1749.81 232.96C1751.5 232.96 1754.24 232.5 1754.24 230.05C1754.24 227.96 1751.97 227.49 1749.69 227.05C1747.13 226.53 1744.57 226.05 1744.57 223.5C1744.51 220.59 1747.57 219.66 1749.81 219.66C1751.81 219.66 1753.54 219.95 1754.88 221.99L1754 222.47Z" fill="black"/>
<path d="M1718 252.11C1718.03 251.406 1718.23 250.72 1718.58 250.11C1718.9 249.57 1719.37 249.128 1719.92 248.83C1720.46 248.517 1721.05 248.3 1721.67 248.19C1722.33 248.046 1723 247.966 1723.67 247.95C1724.2 247.96 1724.72 248 1725.24 248.07C1725.75 248.138 1726.24 248.293 1726.7 248.53C1727.13 248.74 1727.54 248.995 1727.92 249.29C1728.3 249.612 1728.58 250.035 1728.73 250.51C1728.96 251.042 1729.06 251.621 1729.03 252.2C1729.03 255 1727.22 256.39 1723.55 256.39C1723.18 256.397 1722.81 256.437 1722.45 256.51C1722.1 256.57 1721.75 256.69 1721.34 256.8C1720.99 256.925 1720.69 257.147 1720.47 257.44C1720.22 257.755 1720.1 258.15 1720.12 258.55V260H1729V262.09H1717.93V258.6C1717.92 257.905 1718.08 257.219 1718.4 256.6C1718.68 256.052 1719.13 255.605 1719.68 255.32C1720.23 255.027 1720.82 254.811 1721.43 254.68C1722.09 254.558 1722.76 254.497 1723.43 254.5C1723.77 254.49 1724.1 254.453 1724.43 254.39C1724.77 254.315 1725.1 254.218 1725.43 254.1C1725.78 253.954 1726.08 253.711 1726.3 253.4C1726.54 253.081 1726.66 252.689 1726.65 252.29C1726.65 250.84 1725.65 250.02 1723.45 249.96C1722.9 249.957 1722.35 250.018 1721.82 250.14C1721.34 250.251 1720.89 250.494 1720.54 250.84C1720.2 251.182 1719.99 251.637 1719.96 252.12L1718 252.11Z" fill="black"/>
<path d="M1730.86 253.85C1730.84 252.949 1731.02 252.055 1731.38 251.23C1731.69 250.506 1732.15 249.853 1732.72 249.31C1733.26 248.826 1733.89 248.453 1734.58 248.21C1735.26 247.924 1736 247.785 1736.74 247.8C1737.48 247.79 1738.21 247.93 1738.89 248.21C1739.61 248.451 1740.27 248.843 1740.82 249.361C1741.37 249.879 1741.81 250.509 1742.1 251.21C1742.45 252.038 1742.63 252.93 1742.62 253.83V256.28C1742.63 257.18 1742.46 258.073 1742.1 258.9C1741.79 259.626 1741.34 260.28 1740.76 260.82C1740.22 261.309 1739.58 261.686 1738.89 261.93C1738.2 262.179 1737.47 262.314 1736.74 262.33C1736 262.338 1735.27 262.202 1734.58 261.93C1733.91 261.66 1733.28 261.286 1732.72 260.82C1732.14 260.283 1731.68 259.628 1731.38 258.9C1731.02 258.073 1730.85 257.18 1730.86 256.28V253.85ZM1733.07 256.3C1733.05 257.069 1733.23 257.829 1733.59 258.51C1733.9 259.077 1734.36 259.543 1734.93 259.85C1735.47 260.12 1736.07 260.26 1736.68 260.26C1737.29 260.26 1737.89 260.12 1738.43 259.85C1739 259.543 1739.46 259.077 1739.77 258.51C1740.13 257.831 1740.31 257.069 1740.29 256.3V253.85C1740.31 253.187 1740.17 252.529 1739.88 251.93C1739.66 251.41 1739.3 250.965 1738.83 250.65C1738.41 250.346 1737.94 250.128 1737.44 250.01C1736.94 249.89 1736.42 249.89 1735.92 250.01C1735.42 250.128 1734.95 250.346 1734.53 250.65C1734.1 250.988 1733.75 251.427 1733.53 251.93C1733.24 252.529 1733.1 253.187 1733.12 253.85L1733.07 256.3Z" fill="black"/>
<path d="M1744.42 252.11C1744.45 251.406 1744.66 250.719 1745.01 250.11C1745.33 249.568 1745.79 249.125 1746.35 248.83C1746.89 248.515 1747.48 248.298 1748.09 248.19C1748.75 248.046 1749.42 247.966 1750.09 247.95C1750.62 247.96 1751.14 248 1751.66 248.07C1752.17 248.136 1752.66 248.292 1753.12 248.53C1753.55 248.737 1753.96 248.992 1754.34 249.29C1754.72 249.614 1755 250.036 1755.16 250.51C1755.38 251.045 1755.48 251.622 1755.45 252.2C1755.45 255 1753.64 256.39 1749.98 256.39C1749.61 256.397 1749.24 256.437 1748.87 256.51C1748.52 256.57 1748.17 256.69 1747.76 256.8C1747.41 256.925 1747.11 257.147 1746.89 257.44C1746.65 257.757 1746.52 258.15 1746.54 258.55V260H1755.45V262.09H1744.39V258.6C1744.38 257.906 1744.54 257.22 1744.85 256.6C1745.13 256.052 1745.58 255.605 1746.13 255.32C1746.68 255.03 1747.27 254.814 1747.88 254.68C1748.54 254.558 1749.21 254.497 1749.88 254.5C1750.22 254.49 1750.55 254.453 1750.88 254.39C1751.22 254.314 1751.55 254.217 1751.88 254.1C1752.23 253.95 1752.53 253.708 1752.76 253.4C1753 253.079 1753.12 252.688 1753.11 252.29C1753.11 250.84 1752.11 250.02 1749.9 249.96C1749.35 249.958 1748.8 250.018 1748.27 250.14C1747.79 250.253 1747.35 250.495 1746.99 250.84C1746.65 251.182 1746.44 251.637 1746.41 252.12L1744.42 252.11Z" fill="black"/>
<path d="M1757.29 253.85C1757.27 252.949 1757.45 252.054 1757.82 251.23C1758.13 250.507 1758.58 249.854 1759.15 249.31C1759.7 248.824 1760.33 248.451 1761.02 248.21C1761.7 247.926 1762.43 247.786 1763.17 247.8C1763.91 247.79 1764.64 247.93 1765.33 248.21C1766.02 248.448 1766.65 248.822 1767.19 249.31C1767.77 249.847 1768.23 250.502 1768.53 251.23C1768.89 252.057 1769.06 252.95 1769.05 253.85V256.3C1769.07 257.201 1768.89 258.095 1768.53 258.92C1768.22 259.646 1767.77 260.3 1767.19 260.84C1766.65 261.331 1766.02 261.708 1765.33 261.95C1764.64 262.199 1763.91 262.334 1763.17 262.35C1762.43 262.358 1761.7 262.222 1761.02 261.95C1760.34 261.683 1759.71 261.308 1759.15 260.84C1758.57 260.303 1758.12 259.648 1757.82 258.92C1757.46 258.094 1757.28 257.201 1757.29 256.3V253.85ZM1759.5 256.3C1759.48 257.07 1759.66 257.832 1760.03 258.51C1760.33 259.08 1760.8 259.546 1761.37 259.85C1761.9 260.135 1762.5 260.276 1763.11 260.26C1763.72 260.277 1764.32 260.135 1764.86 259.85C1765.43 259.543 1765.89 259.077 1766.2 258.51C1766.56 257.831 1766.74 257.069 1766.72 256.3V253.85C1766.74 253.187 1766.6 252.53 1766.32 251.93C1766.11 251.42 1765.76 250.977 1765.32 250.65C1764.9 250.348 1764.42 250.131 1763.92 250.01C1763.42 249.89 1762.91 249.89 1762.41 250.01C1761.91 250.128 1761.43 250.346 1761.01 250.65C1760.58 250.988 1760.23 251.428 1760.01 251.93C1759.72 252.529 1759.58 253.187 1759.6 253.85L1759.5 256.3Z" fill="black"/>
</g>
<defs>
<clipPath id="clip0_1383_875">
<rect width="2596.75" height="329.14" fill="white"/>
</clipPath>
</defs>
</svg>
